<svg xmlns="http://www.w3.org/2000/svg" xmlns:xlink="http://www.w3.org/1999/xlink" width="1920" height="1033" viewBox="0 0 1920 1033"><defs><style>.a,.e{fill:none;stroke:#fff;stroke-width:2px;}.b{fill:#f6f6f6;}.c{isolation:isolate;}.d{clip-path:url(#a);}.e{stroke-miterlimit:10;}</style><clipPath id="a"><rect class="a" width="1920" height="1033"/></clipPath></defs><g transform="translate(0 -3357)"><g transform="translate(0 3357)"><rect class="b" width="1920" height="1033" transform="translate(0 0)"/><g class="c" transform="translate(0 0)"><g class="d"><g transform="translate(-395.183 -333.738)"><path class="e" d="M1333.345-52.3A1183.359,1183.359,0,0,1,1275.2,105.175c-10.241,22.889-21.814,46.066-41.759,64.352-51.027,46.747-140.305,48.192-216.5,38.037a1067.1,1067.1,0,0,1-204.467-47.882C747.6,137.474,684.843,108.807,615.331,99.4s-150.367,5.779-187.825,53.847c-22.275,28.647-25.834,64.889-17.129,97.973s28.676,63.506,50.822,92.215c25.373,32.857,54.816,66.148,58.631,104.722,3.943,39.957-23.427,80.822-67.055,100.057-62.036,27.367-137.975,10.2-207.565,0C156.83,535.227,62.021,535.33-18.731,567.093S-161.9,667.852-153.609,739.965" transform="translate(154.349 278.935)"/><path class="e" d="M1314.169-57.53a1106.932,1106.932,0,0,1-57.095,153.821c-10.241,22.331-21.532,44.91-40.965,62.825-49.7,45.777-136.081,48.295-210.176,39.585q-26.4-3.1-52.486-7.513a1031.433,1031.433,0,0,1-146.783-35.87c-63.393-20.639-124.841-47.469-192.792-56.076s-144.555,7.12-184.138,51.886C415,167.307,404.972,185.95,400.393,205.678a120.8,120.8,0,0,0-1.741,40.968,137.359,137.359,0,0,0,3.61,18.885c6.81,25.262,21.3,49.987,37.15,73.495,1.562,2.332,3.149,4.644,4.737,6.976,24.784,36.056,50.95,72.938,52.384,113.287,1.383,38.842-24.041,78.428-66.568,97.312-60.449,27-134.16,11.537-201.471,2.91-5.3-.681-10.625-1.321-15.976-1.878-80.8-8.71-165.294-5.16-237.392,24.891-76.809,32.031-135.569,99.541-126.275,169.61" transform="translate(157.831 273.371)"/><path class="e" d="M1294.93-62.76a1041.6,1041.6,0,0,1-56.1,150.168c-10.062,21.774-21.25,43.8-40.2,61.318-48.262,44.786-131.882,48.357-203.852,41.092q-25.6-2.6-51.053-6.46a1004.872,1004.872,0,0,1-143.07-32.444c-61.909-18.926-122.05-43.961-188.388-51.824s-139.179,8.483-180.374,49.9c-16.642,16.717-30.212,33.208-37.457,52.216a116.28,116.28,0,0,0-7.681,40.865,120.683,120.683,0,0,0,1.485,19.71c4.3,26.707,18.69,53.661,34.231,79.233,1.562,2.539,3.1,5.057,4.66,7.574,24.195,39.214,47.161,79.6,46.086,121.77-.9,37.666-24.656,75.91-66,94.608-58.887,26.583-130.294,12.837-195.352,5.841q-7.681-.836-15.362-1.527c-78.038-6.811-158.893-1.651-227.33,28.667C-103.821,630.273-158.842,696.276-148.6,764.3" transform="translate(161.401 267.807)"/><path class="e" d="M1275.842-68a983.058,983.058,0,0,1-55.072,146.536c-9.96,21.217-20.995,42.64-39.429,59.853-47.187,43.754-127.683,48.4-197.554,42.557q-24.886-2.064-49.593-5.387a980.159,980.159,0,0,1-139.332-28.915C734.437,129.37,675.6,106.151,610.825,99.051S476.614,108.772,434.164,147c-18.486,16.635-35.384,31.412-45.548,49.843a114.389,114.389,0,0,0-13.749,40.617,106.722,106.722,0,0,0-.742,20.639c1.792,28.151,16.079,57.438,31.338,84.991,1.511,2.724,3.021,5.449,4.557,8.256,23.606,42.5,43.525,86.126,39.915,130.417-2.919,36.407-25.3,73.454-65.493,91.864-57.223,26.211-126.454,14.179-189.258,8.771-4.967-.413-9.934-.8-14.9-1.135-75.248-4.933-152.492,1.837-217.294,32.424-69.128,32.609-120.335,97-109.069,163.047" transform="translate(164.82 262.232)"/><path class="e" d="M1256.728-73.21a924.021,924.021,0,0,1-54.074,142.842c-9.806,20.639-20.739,41.443-38.661,58.243-45.753,42.888-123.458,48.584-191.2,44.188q-24.169-1.548-48.134-4.314a958.72,958.72,0,0,1-135.7-25.592c-58.887-15.644-116.469-37.15-179.632-43.342S479.7,109.609,436.454,144.757c-20.482,16.511-40.53,29.617-53.767,47.469a115.858,115.858,0,0,0-19.766,40.679,96.535,96.535,0,0,0-2.868,21.341c-.743,29.6,13.467,61.174,28.419,90.811l4.455,8.772c23.12,45.632,39.915,92.462,33.694,138.9-4.685,35.086-25.91,71.018-64.981,89.16-55.61,25.819-122.588,15.5-183.139,11.7q-7.182-.464-14.363-.764c-72.431-3.1-146.04,5.325-207.206,36.118-65.211,32.878-112.654,95.888-100.441,159.827" transform="translate(168.265 256.69)"/><path class="e" d="M1237.568-78.44a867.236,867.236,0,0,1-53.075,139.189c-9.678,20.1-20.482,40.349-37.841,56.757-44.473,41.876-119.285,48.646-184.932,45.694q-23.4-1.053-46.674-3.261a930.367,930.367,0,0,1-131.907-22.166c-57.454-13.993-113.678-33.6-175.279-39.214S482.4,110.364,438.673,142.582C416.193,159.093,393,170.4,376.918,187.719a119.848,119.848,0,0,0-25.6,40.576,93.341,93.341,0,0,0-5.121,22.125c-3.252,30.958,10.856,64.889,25.6,96.487,1.434,3.137,2.893,6.192,4.327,9.391,22.48,48.894,36.356,98.86,27.447,147.506-6.2,33.827-26.5,68.583-64.443,86.456-54.253,25.489-118.952,16.883-177.148,14.674-4.583-.165-9.192-.289-13.8-.371C78.488,603.406,8.489,613.375-48.965,644.5c-61.32,33.167-105.2,94.671-91.813,156.566" transform="translate(171.756 251.125)"/><path class="e" d="M1218.789-83.67a812.768,812.768,0,0,1-52.1,135.535c-9.576,19.566-20.176,39.214-37.074,55.25-43.167,40.948-115.086,48.77-178.608,47.263q-22.659-.537-45.241-2.188a905.977,905.977,0,0,1-128.195-18.74C721.6,121.068,666.682,103.318,606.694,98.53S485.13,111.078,441.221,140.613c-24.656,16.511-50.848,25.943-69.9,42.681a125.642,125.642,0,0,0-31.62,40.493,91.368,91.368,0,0,0-7.374,22.93c-5.761,32.486,8.27,68.624,22.608,102.348q2.151,4.995,4.25,9.989c21.891,52.093,33,105.134,21.2,156.071-7.527,32.506-27.114,66.044-64.008,83.711C264,623.892,201.473,616.979,145.428,616.4H132.165c-66.927.743-133.29,12.383-187.159,43.692-57.453,33.456-97.625,93.453-83.236,153.306" transform="translate(174.917 245.561)"/><path class="e" d="M1199.815-88.9a758.87,758.87,0,0,1-51.027,131.882c-9.422,19.008-19.894,38.058-36.305,53.661-41.835,39.977-110.862,48.852-172.284,48.79q-21.891,0-43.756-1.135a874.973,874.973,0,0,1-124.482-15.314c-54.484-10.691-108.1-26.665-166.421-30.69s-124.585,7.43-161.838,40.1c-30.084,12.363-55.994,24.292-77.936,40.432a133.472,133.472,0,0,0-37.637,40.39,91.186,91.186,0,0,0-9.6,23.755c-8.27,33.91,5.658,72.236,19.714,107.962q2.1,5.3,4.148,10.608c21.3,55.292,29.8,111.45,14.952,164.616-8.705,31.206-27.651,63.753-63.5,81.008-50.8,24.663-111.066,19.462-164.859,20.494-4.25,0-8.475.206-12.8.372C52.052,630.654-10.727,643.821-60.935,675.5c-53.536,33.745-90.021,92.235-74.608,150.044" transform="translate(178.144 239.997)"/><path class="e" d="M1180.821-94.13A710.431,710.431,0,0,1,1130.793,34.1c-9.294,18.431-19.612,36.923-35.512,52.216-40.53,38.946-106.663,48.914-165.96,50.276q-21.148.5-42.322,0a853.759,853.759,0,0,1-120.77-11.867c-53-9.143-105.306-23.3-162.119-26.645s-120.8,7.74-158,38.2c-32.516,11.682-61.192,22.455-86.052,38.161-17.844,10.844-32.671,24.582-43.525,40.328a92.591,92.591,0,0,0-11.829,24.54c-10.779,35.354,3.072,76.054,16.821,113.72q2.048,5.572,4.045,11.207c20.713,58.491,26.755,117.642,8.705,173.16-9.78,29.8-28.394,61.153-62.958,78.2-49.184,24.271-107.2,20.783-158.74,23.4-4.071.207-8.116.475-12.187.764-61.448,4.52-120.514,19.277-167.086,51.226-49.645,33.992-82.417,91-66,146.763" transform="translate(181.469 234.433)"/><path class="e" d="M1162-99.36a663.517,663.517,0,0,1-49,124.576c-9.166,17.873-19.381,35.767-34.743,50.689-39.224,38.058-102.464,49-159.661,51.8q-20.482,1.032-40.965.991a825.813,825.813,0,0,1-117.058-8.441C709.058,112.849,658.159,100.486,602.8,98.01s-116.955,7.9-154.131,36.159c-34.923,11.021-66.338,20.639-94.143,35.705-19.933,10.372-36.85,24.094-49.593,40.225a94.542,94.542,0,0,0-14.031,25.344c-13.288,36.8.461,79.769,13.928,119.458q2,5.882,3.943,11.805c20.124,61.71,23.913,123.833,2.56,181.746-10.677,28.605-29.085,58.779-62.369,75.559-47.673,23.9-103.437,22.125-152.723,26.356-3.892.33-7.681.7-11.649,1.135-58.58,6.4-114.113,22.7-157.05,54.982-45.753,34.281-74.812,89.779-57.377,143.5" transform="translate(184.618 228.869)"/><path class="e" d="M1143.239-104.59a618.243,618.243,0,0,1-48.006,120.923c-9.038,17.337-19.1,34.653-33.95,49.182-37.918,37.15-98.265,49.162-153.363,53.413q-19.612,1.527-39.378,2.064A801.75,801.75,0,0,1,755.2,115.957c-50-5.841-99.673-16.387-153.44-18.1s-113.422,8.256-150.547,34.178c-37.329,10.319-71.484,18.885-102.259,33.352-20.969,9.865-40.939,23.054-55.456,40.143a98.042,98.042,0,0,0-16.258,26.149c-15.8,38.244-2.151,83.5,11.009,125.216,1.306,4.128,2.56,8.256,3.866,12.383,19.561,64.909,21.225,130.169-3.764,190.29-11.368,27.367-29.674,56.385-61.857,72.876C180.407,655.932,127,655.87,79.966,661.731c-3.712.454-7.425.949-11.112,1.507-55.815,8.256-107.712,26.253-146.988,58.738-41.887,34.57-67.234,88.562-48.646,140.344" transform="translate(187.713 223.305)"/><path class="e" d="M1124.741-109.82A576.389,576.389,0,0,1,1077.708,7.45c-8.91,16.779-18.818,33.5-33.156,47.676-36.613,36.118-94.066,49.244-147.039,54.941q-18.9,2.064-37.944,3.116a780.033,780.033,0,0,1-109.581-1.672C701.341,107.384,653.054,98.653,601,97.7S491.4,106.1,454.169,129.921c-39.736,9.68-76.656,17.089-110.35,30.958-23.043,9.473-45.19,22.7-61.448,40.039a102.171,102.171,0,0,0-18.485,26.954c-18.281,39.73-4.788,87.261,8.065,130.995q1.92,6.5,3.738,13.023c19,68.108,18.793,136.526-9.985,198.855-12.059,26.088-30.186,53.909-61.448,70.172-44.37,23.115-95.679,24.767-140.459,32.217-3.508.6-7.041,1.218-10.548,1.9C.225,685.21-48.063,704.776-83.7,737.53c-38,34.859-59.63,87.344-40.171,136.98" transform="translate(190.542 217.741)"/><path class="e" d="M1106.2-115A533.911,533.911,0,0,1,1060.111-1.486c-8.756,16.222-18.537,32.341-32.388,46.149C992.442,79.748,937.882,94.01,886.906,101.13q-18.127,2.58-36.459,4.128a752.909,752.909,0,0,1-105.92,1.837c-47.033-2.5-94.143-9.391-144.607-9.576S494.1,106.125,457.029,127.754c-42.117,9.04-81.8,15.232-118.44,28.626-25.065,9.1-49.337,22.145-67.464,39.957A106.438,106.438,0,0,0,250.437,224.1c-20.815,41.154-7.348,90.955,5.121,136.712q1.869,6.77,3.636,13.622c18.409,71.307,16.565,142.966-16.232,207.4-12.674,24.87-30.724,51.473-60.807,67.407-42.757,22.7-91.813,26.088-134.34,35.086-3.354.722-6.682,1.465-10.011,2.27-50.259,12.053-94.911,33.249-126.915,66.251-34.1,35.086-52.026,86.126-31.543,133.719" transform="translate(193.392 212.23)"/><path class="e" d="M1087.856-120.28A496.694,496.694,0,0,1,1042.9-10.316c-8.654,15.644-18.281,31.206-31.62,44.621C977.3,68.483,925.634,83.838,876.886,92.321q-17.41,3.055-35.025,5.242a725.3,725.3,0,0,1-102.182,5.263c-45.574-.846-91.352-5.944-140.228-5.345s-98.726,14.447-139.358,28.3c-42.092,14.447-87.051,13.5-126.556,26.273-27.088,8.71-53.511,21.671-73.43,39.854a111.376,111.376,0,0,0-23.043,28.564c-23.324,42.6-9.934,94.67,2.33,142.408q1.792,7.1,3.533,14.241c17.922,74.527,14.568,149.508-22.48,215.945-13.109,23.673-31.313,49-60.167,64.661-41.17,22.331-87.972,27.491-128.246,38.079-3.175.826-6.324,1.713-9.473,2.642C-24.908,712.4-65.95,735.181-94.319,768.451c-30.212,35.416-44.447,84.908-23.043,130.458" transform="translate(196.064 206.612)"/><path class="e" d="M1069.712-125.5a461.285,461.285,0,0,1-43.961,106.29C1017.225-4.1,1007.829,10.861,995.028,23.9c-32.67,33.229-81.444,49.533-128.016,59.543q-16.616,3.591-33.54,6.315A698.306,698.306,0,0,1,734.8,98.432c-44.063.8-88.561-2.477-135.85-1.114s-95.679,14.138-135.7,26.315c-44.806,13.663-92.171,11.723-134.647,23.941-29.034,8.235-57.71,21.134-79.344,39.606a116.115,116.115,0,0,0-25.117,29.369c-25.859,44.105-12.571,98.468-.589,148.27q1.767,7.368,3.431,14.839c17.231,77.726,12.8,156.174-28.727,224.51-13.7,22.558-32.03,46.582-59.758,61.917-39.557,22-84.106,28.812-122.127,41.051-3,.97-5.966,2.064-8.935,3.034-44.7,15.83-82.109,40.225-106.816,73.763-26.346,35.705-36.869,83.691-14.338,127.2" transform="translate(198.538 201.059)"/><path class="e" d="M1051.839-130.73a425.991,425.991,0,0,1-42.962,102.637C1000.505-13.646,991.16.8,978.845,13.515,947.481,45.753,901.6,63.048,857.076,74.586q-15.9,4.128-32.106,7.368a673.337,673.337,0,0,1-94.732,12.136c-42.578,2.435-85.745.97-131.447,3.116s-92.632,13.828-131.907,24.333c-47.622,12.61-97.343,9.824-142.814,21.464-31.108,7.946-61.832,20.845-85.361,39.668a121.118,121.118,0,0,0-27.344,30.174C183,258.251,196.208,314.966,207.857,366.811q1.741,7.678,3.354,15.417C227.879,463.112,222.6,545.255,176.238,615.3c-14.159,21.444-32.618,44.147-59.22,59.254C79.074,696.125,36.752,704.587.984,718.5c-2.816,1.094-5.633,2.229-8.4,3.405-41.938,17.729-75.734,43.713-96.78,77.52-22.454,35.994-29.264,82.555-5.709,123.936" transform="translate(200.741 195.495)"/><path class="e" d="M1034.288-136A394.043,394.043,0,0,1,992.35-36.933,213.733,213.733,0,0,1,963.213,3.044c-30.058,31.289-73.046,49.719-115.47,62.618q-15.131,4.623-30.724,8.441a651.876,651.876,0,0,1-91.045,15.541c-40.965,4.128-82.98,4.437-127.094,7.347s-89.611,13.477-128.17,22.373c-50.285,11.578-102.515,8.152-150.9,19.132-33.1,7.636-65.979,20.371-91.4,39.647A126.763,126.763,0,0,0,198.831,209.1c-30.8,47.036-17.692,105.857-6.273,159.724q1.69,7.987,3.252,16.036c16.079,84.145,10.241,170.023-41.2,241.619-14.619,20.391-33.284,41.711-58.734,56.55C59.422,704.209,19.4,714.321-14.084,729.883c-2.56,1.238-5.274,2.5-7.86,3.777-39.147,19.628-69.333,47.222-86.743,81.3-18.562,36.283-21.66,81.255,2.893,120.676" transform="translate(202.624 189.888)"/><path class="e" d="M1017.109-141.19a362.5,362.5,0,0,1-40.965,95.228,221.45,221.45,0,0,1-28.5,38.553c-28.676,30.319-68.77,49.822-109.069,64.146-9.6,3.426-19.356,6.6-29.188,9.515a624.666,624.666,0,0,1-87.358,18.967c-39.608,5.738-80.163,7.9-122.69,11.578s-86.36,13.044-124.457,20.391c-53.127,10.319-107.533,6.357-158.944,16.841-35.128,7.182-70.153,19.855-97.292,39.5a132.546,132.546,0,0,0-31.8,31.784c-33.284,48.377-20.483,109.572-9.294,165.462q1.664,8.256,3.124,16.635C196.195,474.757,189.9,564.66,133.262,637.6c-15.055,19.359-33.873,39.214-58.2,53.806-34.743,20.8-72.585,32.713-103.821,49.8-2.56,1.341-4.916,2.745-7.322,4.128-36.112,21.08-62.968,50.874-76.681,85.073-14.7,36.531-14.082,80.017,11.5,117.394" transform="translate(204.109 184.367)"/><path class="e" d="M1000.392-146.42a331.958,331.958,0,0,1-39.915,91.554,232.622,232.622,0,0,1-27.7,37.15c-27.421,29.369-64.622,49.925-102.822,65.694-9.089,3.777-18.357,7.285-27.728,10.567A600.474,600.474,0,0,1,718.6,80.938c-38.123,7.389-77.373,11.351-118.338,15.809S517.158,109.3,479.572,115.178c-55.892,8.751-112.807,4.582-167.061,14.447-37.15,6.749-74.326,19.339-103.257,39.358a138.543,138.543,0,0,0-34.027,32.568c-35.844,49.822-23.043,113.287-12.187,171.2,1.05,5.717,2.074,11.475,3.021,17.254,14.927,90.543,8.551,184.718-53.767,258.729-15.362,18.389-34.487,36.8-57.684,51.1-33.028,20.412-68.616,34.013-97.574,52.732q-3.405,2.188-6.759,4.52c-33.285,23.155-56.594,54.23-66.568,88.747-10.8,36.82-6.478,78.8,20.1,114.133" transform="translate(205.157 178.802)"/><path class="e" d="M984.47-151.65a304.937,304.937,0,0,1-38.891,87.9,255.061,255.061,0,0,1-26.935,35.54C892.529.17,858.22,21.8,822.146,39.012c-8.6,4.128-17.385,7.987-26.269,11.62a574.774,574.774,0,0,1-79.933,25.84c-36.612,9.019-74.582,14.8-113.934,20.02S522.23,108.5,485.029,113c-58.606,7.058-117.954,2.745-175.177,12.094-39.147,6.4-78.474,18.926-109.223,39.214A144.042,144.042,0,0,0,164.4,197.787c-38.4,51.267-25.6,117.022-15.106,176.958,1.05,5.9,2.023,11.867,2.944,17.853,14.338,93.742,8.167,192.437-59.911,267.273a282.127,282.127,0,0,1-57.146,48.4C3.664,728.288-29.7,743.623-56.452,763.994c-2.1,1.61-4.173,3.24-6.222,4.912-30.555,25.252-50.376,57.67-56.609,92.586-6.913,37.15,1.127,77.582,28.727,110.872" transform="translate(205.409 173.238)"/><path class="e" d="M969.245-156.88a279.024,279.024,0,0,1-37.893,84.248,278.9,278.9,0,0,1-26.141,34.013c-24.809,27.429-56.327,50.091-90.2,68.748-8.091,4.458-16.386,8.689-24.809,12.693a547.938,547.938,0,0,1-76.195,29.266A817.148,817.148,0,0,1,604.426,96.338c-37.56,5.944-76.3,11.434-113.243,14.447-61.243,5.1-123.1.991-183.267,9.783-41.17,6.006-82.621,18.451-115.214,39.214a150.313,150.313,0,0,0-38.328,34.261c-40.965,52.691-28.163,120.717-17.922,182.675,1,6.192,1.971,12.383,2.842,18.575,13.749,97,8.039,200.445-66.159,275.839A344.957,344.957,0,0,1,16.5,716.784c-29.9,19.628-61.012,36.675-85.515,58.594-1.92,1.734-3.815,3.488-5.684,5.284-27.781,27.3-44.145,60.974-46.751,96.218-3.021,37.4,8.731,76.364,37.355,107.611" transform="translate(204.965 167.674)"/><path class="e" d="M954.873-162.11C934.749-81.742,869.487-11.1,785.534,35.012s-185.776,68.934-287.319,73.722c-63.8,2.993-128.272-.8-191.358,7.409S179.738,147.1,145.02,190.278C101.495,244.414,114.3,314.73,124.128,378.711c16.258,105.258,16.028,222.9-69.666,303.392C11.781,722.183-48.591,748.993-86.2,792.232c-52.128,59.956-48.083,147.775,9.422,204.449" transform="translate(203.642 162.11)"/></g><g transform="translate(230.275 608.365)"><path class="e" d="M89.94,650.321A1484.4,1484.4,0,0,1,218.98,523.185c20.482-17.894,42.168-35.7,69.333-46.375,69.461-27.223,152.518-.784,217.934,32.3,60.322,30.513,115.93,66.7,165.652,107.8,49.209,40.7,93.375,86.683,153,116.981s141.457,41.546,199.064,8.792c34.283-19.483,54.919-51.824,62.728-85.032s3.968-67.51-2.714-100.883c-7.681-38.223-18.87-78.077-3.917-114.855,15.516-38.079,60.347-67.241,109.786-71.41,70.332-5.944,132.163,33.538,191.46,64.62,75.3,39.5,162.811,68.913,252.5,64.744s180.348-48.378,207.257-117.476" transform="translate(-89.94 -213.994)"/><path class="e" d="M93.57,663.509A1370.009,1370.009,0,0,1,220.818,538.87c20.278-17.46,41.707-34.817,68.411-45.3,53.639-21.052,115.393-10.319,170.747,10.319q22.363,8.423,43.525,18.72A879.229,879.229,0,0,1,667.8,625.286c49.03,38.945,92.965,83.4,151.955,112.523,33.079,16.367,72.278,27.574,110.887,29.6,33.617,1.734,66.978-3.653,94.86-19.029a132.976,132.976,0,0,0,14.159-9c27.37-20.04,43.986-48.852,51.206-78.428a183.453,183.453,0,0,0,4.634-28.4c2.048-25.035-.359-50.359-3.917-75.125-5.607-39.214-13.083-79.48,3.789-116.176s59.707-64.806,107.969-69.058c68.693-6.089,129.27,31.123,187.236,60.018,4.583,2.291,9.192,4.52,13.851,6.728,70.358,33.167,149.984,56.2,230.889,50.916,86.257-5.634,172.744-49.533,197.733-117.167" transform="translate(-84.276 -212.26)"/><path class="e" d="M97.2,681.861A1274.235,1274.235,0,0,1,222.656,559.74c20.073-17.047,41.272-33.93,67.49-44.25,52.691-20.639,113.191-11.062,167.675,8.255q22.03,7.869,42.962,17.543a866.994,866.994,0,0,1,162.887,97.58c48.8,37.15,92.607,80.141,151.059,108.251,34.334,16.511,74.556,28.234,114.344,30.752,34.564,2.064,69.129-2.91,98.086-18.389a129.694,129.694,0,0,0,14.7-9.143c28.522-20.412,45.548-50.091,53.382-80.491a198.583,198.583,0,0,0,5.121-29.452c2.56-25.716,1.177-51.762-1.127-77.128-3.533-40.328-7.3-80.842,11.5-117.518,17.922-34.818,59.118-62.35,106.2-66.7,67-6.192,126.351,28.688,183.011,55.415q6.682,3.1,13.519,6.192c68.693,30.566,145.759,50.978,223.439,44.312,82.8-7.079,165.14-50.854,188.209-116.816" transform="translate(-78.612 -215.856)"/><path class="e" d="M100.82,700.786A1185.971,1185.971,0,0,1,224.534,581.081c19.817-16.614,40.786-33.022,66.568-43.177C342.8,517.534,402.067,526.14,455.68,544.1q21.734,7.423,42.45,16.593a854.436,854.436,0,0,1,161.5,92.442c48.646,35.54,92.3,76.839,149.958,103.917,35.614,16.717,76.81,28.894,117.775,31.908,35.537,2.58,71.356-2.188,101.312-17.77a132.815,132.815,0,0,0,15.362-9.267c29.648-20.8,47.084-51.37,55.482-82.721a219.253,219.253,0,0,0,5.735-30.277c3.175-26.418,2.688-53.186,1.639-79.15-1.485-41.381-1.613-82.143,19.2-118.839,18.818-33.208,58.529-59.853,104.435-64.373,65.339-6.377,123.433,26.273,178.761,50.813q6.554,2.91,13.211,5.7c67.055,27.966,141.534,45.777,215.963,37.728,79.37-8.565,157.562-52.113,178.735-116.507" transform="translate(-72.964 -219.962)"/><path class="e" d="M104.45,719.775A1100.981,1100.981,0,0,1,226.372,602.69c19.612-16.2,40.351-32.155,65.647-42.124,50.745-20.02,108.788-12.383,161.5,4.231q21.369,6.772,41.81,15.252a842.405,842.405,0,0,1,160.1,87.323c48.39,33.807,91.992,73.5,148.934,99.541C841.257,783.8,883.5,796.469,925.62,799.936c36.459,3.013,73.532-1.424,104.538-17.13a138.292,138.292,0,0,0,15.848-9.391c30.724-21.2,48.646-52.65,57.581-84.929a241.131,241.131,0,0,0,6.324-31.082c3.738-27.1,4.2-54.611,4.429-81.193.563-42.413,3.994-83.4,26.883-120.16,19.689-31.577,57.914-57.459,102.643-62.02,63.675-6.5,120.514,23.859,174.562,46.211,4.25,1.775,8.552,3.488,12.8,5.18,65.39,25.365,137.31,40.555,208.512,31.123,75.888-10.031,149.983-53.331,169.211-116.156" transform="translate(-67.3 -224.111)"/><path class="e" d="M108.08,738.732A1024.451,1024.451,0,0,1,228.21,624.144c19.382-15.768,39.864-31.247,64.7-41.051,49.8-19.669,106.586-13.168,158.432,2.167,14.184,4.128,28.01,9,41.221,14.117A829.564,829.564,0,0,1,651.3,681.562c48.185,32.114,91.736,70.172,147.935,95.207,38.174,17.027,81.392,30.195,124.713,34.219,37.406,3.426,75.708-.7,107.738-16.511a144.048,144.048,0,0,0,16.437-9.514c31.927-21.568,50.182-53.909,59.681-87.117a256.968,256.968,0,0,0,6.887-31.928c4.327-27.78,5.658-56.014,7.22-83.2,2.56-43.486,9.525-84.619,34.615-121.48,20.483-29.988,57.3-55.023,100.851-59.688,61.985-6.646,117.6,21.444,170.312,41.608,4.173,1.589,8.347,3.158,12.571,4.664,63.726,22.7,133.136,35.354,201.036,24.54,72.457-11.516,142.4-54.59,159.712-115.846" transform="translate(-61.636 -228.229)"/><path class="e" d="M111.71,757.709a952.589,952.589,0,0,1,118.364-112.09c19.177-15.334,39.429-30.359,63.777-40,48.825-19.318,104.384-13.849,155.36.145,13.954,3.8,27.575,8.255,40.632,12.94A818.312,818.312,0,0,1,647.2,695.792c47.955,30.38,91.454,66.726,146.911,90.811,39.48,17.171,83.671,30.958,128.169,35.375,38.4,3.859,77.885,0,110.939-15.871a142.385,142.385,0,0,0,17-9.638c33.079-21.96,51.744-55.189,61.806-89.3a289.083,289.083,0,0,0,7.476-32.754c4.89-28.482,7.143-57.438,10.011-85.239,4.557-44.518,14.952-85.878,42.3-122.8,21.1-28.358,56.685-52.547,99.059-57.252,60.346-6.79,114.7,19.029,166.113,37.026,4.045,1.4,8.142,2.786,12.238,4.128,62.088,20.144,128.861,30.133,193.585,17.935,69-12.961,134.8-55.725,150.214-115.578" transform="translate(-55.972 -232.367)"/><path class="e" d="M115.34,776.656A887.378,887.378,0,0,1,231.911,667.1c18.946-14.922,38.968-29.472,62.856-38.945,47.878-18.967,102.208-14.571,152.288-1.919,13.723,3.426,27.165,7.471,40.069,11.805a808.334,808.334,0,0,1,155.949,71.947c47.75,28.668,91.224,63.32,145.938,86.5,40.811,17.3,85.975,31.495,131.651,36.531,39.275,4.272,80.061.764,114.164-15.252a144.172,144.172,0,0,0,17.564-9.783c34.231-22.331,53.28-56.427,64.008-91.492a318.017,318.017,0,0,0,8.014-33.579c5.479-29.163,8.679-58.841,12.8-87.24,6.606-45.591,20.3-87.137,50-124.143,21.558-26.83,56.1-50.111,97.292-54.982,58.657-6.935,111.758,16.511,161.889,32.424q5.914,1.857,11.906,3.612c60.423,17.543,124.636,24.932,186.135,11.351,65.544-14.447,127.2-57.066,140.817-115.185" transform="translate(-50.308 -236.495)"/><path class="e" d="M119,795.623A827.7,827.7,0,0,1,233.83,688.569c18.716-14.447,38.4-28.585,61.908-37.872,46.931-18.575,99.852-15.19,149.19-3.963,13.518,3.075,26.755,6.708,39.506,10.65A795.119,795.119,0,0,1,639,724.212c47.545,26.954,91.019,59.853,144.888,82.122,42.117,17.419,88.254,32.155,135.082,37.687,40.248,4.706,82.263,1.507,117.391-14.633a142.51,142.51,0,0,0,18.153-9.886c35.358-22.7,54.842-57.789,66.031-93.68a353.38,353.38,0,0,0,8.6-34.4c6.042-29.865,10.241-60.245,15.567-89.284,8.68-46.623,25.6-88.376,57.71-125.443,21.968-25.324,55.482-47.676,95.525-52.65,56.993-7.079,108.839,14.2,157.639,27.821,3.84,1.073,7.681,2.064,11.6,3.1,58.887,14.922,120.335,19.71,178.659,4.747,62.113-15.913,119.618-58.284,131.191-114.835" transform="translate(-44.597 -240.623)"/><path class="e" d="M122.59,814.569A773.114,773.114,0,0,1,235.628,710.033c18.588-14.055,38.046-27.7,60.987-36.757,45.958-18.266,97.778-15.892,146.117-6.027,13.288,2.724,26.346,5.944,38.942,9.514a783.66,783.66,0,0,1,153.158,61.71c47.34,25.221,90.84,56.385,143.864,77.767,43.525,17.5,90.558,32.816,138.564,38.843,41.2,5.118,84.49,2.25,120.616-14.014a149.474,149.474,0,0,0,18.716-10.01c36.51-23.116,56.327-58.986,68.13-95.868,3.713-11.723,6.657-23.549,9.192-35.23,6.606-30.566,11.7-61.669,18.358-91.307,10.7-47.7,30.724-89.655,65.416-126.784,22.275-23.838,54.868-45.22,93.707-50.3,55.328-7.224,105.946,11.785,153.44,23.219,3.738.887,7.5,1.754,11.266,2.58,57.12,12.383,116.187,14.447,171.208-1.837,58.657-17.378,112.039-59.543,121.692-114.525" transform="translate(-38.996 -244.73)"/><path class="e" d="M126.22,833.642A719.138,719.138,0,0,1,237.491,731.6c18.255-13.642,37.56-26.831,60.039-35.747,45.01-17.935,95.577-16.511,143.045-8.07,13.083,2.353,25.91,5.18,38.4,8.255a773.442,773.442,0,0,1,151.8,56.592c47.11,23.508,90.635,52.918,142.84,73.412,44.806,17.605,92.811,33.476,142.021,40,42.143,5.552,86.615,2.993,123.817-13.374a151.236,151.236,0,0,0,19.279-10.134c37.662-23.487,57.94-60.245,70.255-98.076,3.892-11.991,7.015-24.106,9.755-36.056,7.194-31.227,13.237-63.072,21.148-93.329,12.8-48.749,35.844-90.976,73.123-128.085,22.531-22.393,54.279-42.784,91.941-47.965,53.766-7.368,103,9.37,149.19,18.575,3.661.722,7.3,1.4,10.984,2.064,55.431,9.721,111.937,9.287,163.732-8.441,55.175-18.843,104.435-60.761,112.167-114.195" transform="translate(-33.332 -248.964)"/><path class="e" d="M129.85,852.525a671.774,671.774,0,0,1,109.479-99.5c17.922-13.229,37.125-25.922,59.118-34.694,44.063-17.584,93.4-17.3,139.972-10.113,12.8,2.064,25.6,4.417,37.765,7.182A763.089,763.089,0,0,1,626.6,766.874c46.9,21.795,90.456,49.389,141.841,69.057,46.086,17.667,95.09,34.116,145.477,41.154,43.065,5.965,88.792,3.715,127.017-12.755a153.935,153.935,0,0,0,19.868-10.319c38.789-23.838,59.476-61.463,72.354-100.2,4.071-12.383,7.374-24.767,10.241-36.882,7.681-31.929,14.747-64.5,23.939-95.352,14.824-49.8,40.683-92.359,80.8-129.426,22.71-20.969,53.767-40.328,90.149-45.591,52-7.513,100.108,6.935,144.99,13.993,3.533.557,7.092,1.073,10.651,1.548,53.767,7.12,107.713,4.128,156.179-15.025,51.744-20.329,96.857-62.02,102.669-113.865" transform="translate(-27.668 -253.028)"/><path class="e" d="M133.48,871.43a626.795,626.795,0,0,1,107.687-97c17.922-12.8,36.664-25.014,58.221-33.641,43.064-17.213,91.173-17.976,136.874-12.156,12.622,1.61,25.065,3.674,37.2,6.047a750.667,750.667,0,0,1,149.01,46.334c46.7,20.082,90.3,45.88,140.817,64.7,47.545,17.708,97.292,34.776,148.933,42.31,44.037,6.4,90.994,4.458,130.269-12.115a154.782,154.782,0,0,0,20.483-10.319c39.941-24.251,61.038-62.763,74.454-102.451,4.225-12.549,7.681-25.221,10.933-37.707,8.321-32.609,16.335-65.879,26.7-97.353,17-50.833,45.548-93.824,88.51-130.768,22.838-19.607,53.075-37.893,88.382-43.239,50.336-7.657,97.292,4.5,140.818,9.391,3.456.371,6.887.722,10.241,1.032,52.128,4.5,103.462-1.135,148.806-21.63,48.287-21.795,89.252-63.237,93.17-113.514" transform="translate(-22.004 -257.135)"/><path class="e" d="M137.11,890.47a583.493,583.493,0,0,1,105.92-94.485c17.615-12.383,36.2-24.147,57.274-32.589,42.117-16.882,89-18.575,133.8-14.2,12.392,1.238,24.656,2.889,36.612,4.891a739.08,739.08,0,0,1,147.628,41.278c46.5,18.348,90.174,42.31,139.819,60.348,48.9,17.729,99.673,35.416,152.39,43.466,44.985,6.811,93.17,5.181,133.469-11.5a157.333,157.333,0,0,0,21.02-10.526c40.965-24.643,62.574-63.981,76.553-104.639,4.4-12.837,8.091-25.8,11.5-38.533,8.91-33.311,17.922-67.3,29.495-99.4,19.074-51.886,50.285-95.372,96.217-132.089,23.043-18.286,52.461-35.458,86.615-40.906,48.646-7.8,94.271,2.064,136.516,4.788,3.328.206,6.657.371,10.011.516,50.49,1.9,99.238-6.336,141.33-28.213,44.857-23.343,81.674-64.62,83.748-113.246" transform="translate(-16.34 -261.294)"/><path class="e" d="M140.73,909.427A545.534,545.534,0,0,1,244.884,817.44c17.384-11.929,35.844-23.24,56.327-31.516,41.17-16.511,86.795-19.38,130.73-16.263,12.187.867,24.221,2.064,36.049,3.736a730.71,730.71,0,0,1,146.245,36.139c46.291,16.656,90.021,38.76,138.82,55.993C803.34,883.278,855.007,901.6,908.9,910.149c45.906,7.244,95.346,5.923,136.7-10.856a160.581,160.581,0,0,0,21.558-10.65c42.22-25.035,64.136-65.322,78.678-106.827,4.583-13.126,8.449-26.376,12.085-39.379,9.473-33.992,19.382-68.707,32.286-101.4,21.123-52.939,54.919-97,103.923-133.41,22.915-17.006,51.846-33.022,84.8-38.553,47.007-7.946,91.352-.33,132.317.186h9.678c48.825-.7,95.013-11.558,133.879-34.818,41.4-24.767,74.1-65.714,74.249-112.874" transform="translate(-10.692 -265.412)"/><path class="e" d="M144.36,928.459c28.985-33.4,63.434-63.486,102.413-89.449a302.637,302.637,0,0,1,55.405-30.463c40.2-16.181,84.49-20.1,127.657-18.307,11.957.5,23.811,1.383,35.46,2.58a719.661,719.661,0,0,1,144.863,30.958c46.086,14.922,89.867,35.087,137.77,51.6,51.693,17.75,104.23,36.758,159.328,45.8,46.854,7.636,97.522,6.666,139.9-10.32A163.573,163.573,0,0,0,1069.3,900.08c43.371-25.427,65.672-66.581,80.778-109.035,4.762-13.395,8.807-26.831,12.648-40.184,10.036-34.694,20.892-70.172,35.076-103.442,23.171-53.971,59.451-98.819,111.63-134.71,23.043-15.789,51.206-30.566,83.031-36.221,45.318-8.091,88.433-2.745,128.016-4.417,3.124-.124,6.247-.31,9.371-.516,47.161-3.3,90.789-16.759,126.428-41.4,37.944-26.211,66.568-66.973,64.648-112.544" transform="translate(-5.028 -269.625)"/><path class="e" d="M148,947.373c28.266-32.671,62.134-61.946,100.595-86.952a314.763,314.763,0,0,1,54.483-29.39c39.25-15.83,82.416-20.8,124.585-20.371,11.726.145,23.4.64,34.871,1.445a708.3,708.3,0,0,1,143.378,25.84c45.855,13.209,89.739,31.6,136.772,47.283,53.1,17.708,106.509,37.4,162.759,46.933,47.827,8.07,99.724,7.409,143.122-9.6a167.451,167.451,0,0,0,22.736-10.9c44.5-25.737,67.311-67.861,82.9-111.223,4.941-13.684,9.192-27.491,13.237-41.01,10.6-35.375,22.4-71.534,37.867-105.464,25.219-55.044,63.88-100.759,119.311-136.051,23.043-14.592,50.643-28.11,81.239-33.868,43.679-8.255,85.54-5.16,123.868-9.019,3.021-.31,6.042-.661,9.038-1.032,45.523-5.923,86.564-21.98,118.952-48.006,34.513-27.656,58.887-68.108,55.149-112.214" transform="translate(0.652 -273.699)"/><path class="e" d="M151.62,966.508c27.528-32.019,60.838-60.541,98.828-84.62a329.77,329.77,0,0,1,53.536-28.316c38.4-15.5,80.215-21.526,121.512-22.414q17.282-.371,34.308.289a696.759,696.759,0,0,1,142.072,20.639c45.65,11.5,89.611,27.986,135.7,42.908,54.535,17.646,108.813,38.058,166.241,48.109,48.774,8.482,101.9,8.132,146.348-8.978a169.29,169.29,0,0,0,23.3-11.042c45.651-26.17,68.77-69.1,84.977-113.41,5.121-13.952,9.55-28.048,13.826-41.835,11.163-36.056,23.913-72.938,40.632-107.487,27.293-56.076,68.232-102.864,127.017-137.352,23.043-13.456,50.054-25.675,79.37-31.536,41.989-8.379,82.6-7.575,119.618-13.622,2.919-.475,5.838-.991,8.731-1.548,43.405-8.21,82.451-27.327,111.5-54.59,31.031-29.142,51.206-69.45,45.625-111.883" transform="translate(6.3 -277.912)"/><path class="e" d="M155.25,985.287c26.838-31.224,59.58-58.865,97.036-81.916A348.024,348.024,0,0,1,304.9,876.086c37.329-15.128,78.038-22.269,118.44-24.436,11.291-.64,22.556-.908,33.719-.888a686.862,686.862,0,0,1,140.689,15.624c45.445,9.762,89.611,24.354,134.749,38.553,55.943,17.563,111.092,38.781,169.723,49.244,49.7,8.916,104.077,8.875,149.548-8.359a169.123,169.123,0,0,0,23.862-11.145c46.8-26.562,70.332-70.379,87.051-115.578,5.274-14.241,9.908-28.606,14.389-42.661,11.752-36.758,25.45-74.3,43.525-109.51,29.341-57.128,72.508-105.155,134.749-138.693a293.52,293.52,0,0,1,77.68-29.184c40.325-8.5,79.677-9.989,115.394-18.224,2.816-.64,5.607-1.342,8.4-2.064,41.852-10.983,78.285-32.415,104.026-61.194,27.6-30.607,43.73-70.667,36.126-111.553" transform="translate(11.964 -281.955)"/><path class="e" d="M158.87,1004.286c26.14-30.5,58.326-57.335,95.269-79.418a372.725,372.725,0,0,1,51.693-26.211,401.8,401.8,0,0,1,115.368-26.5c11.06-1.011,22.121-1.651,33.156-2.064a677.233,677.233,0,0,1,139.307,10.485c45.215,8.049,89.355,20.639,133.725,34.2,57.377,17.44,113.371,39.359,173.154,50.4,50.643,9.349,106.253,9.618,152.774-7.719a173.12,173.12,0,0,0,24.425-11.269c47.929-26.954,71.868-71.658,89.2-117.786,5.453-14.447,10.241-29.183,14.978-43.506,12.315-37.439,26.96-75.765,46.086-111.45,31.389-58.2,76.809-107.632,142.43-140.035a343.584,343.584,0,0,1,75.887-26.831c38.661-8.647,76.81-12.383,111.169-22.826,2.714-.825,5.428-1.672,8.091-2.58,40.338-13.782,74.2-37.538,96.7-67.84,24.144-32.094,36.126-71.926,26.628-111.223" transform="translate(17.612 -286.115)"/><path class="e" d="M162.5,1023.136c25.417-29.785,57.034-55.8,93.451-76.9,48.033-28.442,104.04-46.875,163.041-53.661,10.83-1.383,21.711-2.435,32.567-3.178a664.535,664.535,0,0,1,137.924,5.366c45.01,6.336,89.227,17.068,132.7,29.844,58.887,17.275,115.675,40,176.662,51.6,51.59,9.762,108.429,10.32,155.974-7.1a174.774,174.774,0,0,0,25.014-11.393c49.081-27.346,73.43-72.917,91.3-119.994,5.633-14.8,10.625-29.741,15.541-44.312,12.8-38.14,28.5-77.169,49-113.514,33.463-59.234,80.855-110.294,150.137-141.335a420.378,420.378,0,0,1,74.249-24.5c37-8.792,73.839-14.819,106.944-27.429,2.56-.991,5.12-2.064,7.681-3.1,38.676-16.573,69.862-42.579,89.1-74.3,20.687-33.538,28.548-73.165,17.1-110.893" transform="translate(23.276 -290.126)"/><path class="e" d="M166.13,1042.209C223.2,974.349,317.189,929.5,416.887,913.113s204.287-5.779,300.222,21.4c60.3,17.089,117.928,40.679,180.067,52.712s132.061,11.124,184.8-17.977c65.979-36.428,88-105.258,109.53-167.319,35.409-102.121,92.171-210.7,209.613-258.254,58.58-23.673,127.12-29.617,182.525-57.789,76.81-39.09,115.214-121.357,89.227-191.529" transform="translate(28.94 -294.36)"/></g><g transform="translate(-676.512 -307.175)"><path class="e" d="M-264.23,14.033A1664.973,1664.973,0,0,1-108.87-92.278C-84.7-106.891-59.4-121.173-30.294-127.8c74.4-16.759,150.188,21.4,207.027,63.444,52.541,38.785,99.175,82.468,138.923,130.128,39.3,47.18,72.457,98.819,124.329,137.31s129.834,61.421,193.842,37.583c38.072-14.179,65.6-42.991,80.7-74.527s19.023-65.817,19.919-99.624c1.024-38.7-1.1-79.542,21.84-113.514,23.76-35.086,74.4-57.355,123.945-54.28,70.537,4.4,122.511,52.216,173.871,91.41,65.237,49.76,144.735,91.41,233.808,100.367s188.209-21.382,230.121-85.445" transform="translate(264.23 167.755)"/><path class="e" d="M-262,20.151A1544.221,1544.221,0,0,1-108.944-83.931C-85.108-98.171-60.119-112.1-31.52-118.542c57.479-12.92,115.8,6.584,165.627,35.086Q154.22-71.9,172.742-58.689c52.243,37.01,98.827,78.906,138.769,124.8,39.429,45.447,72.713,95.558,124.226,132.852,28.88,20.928,64.9,37.645,102.413,45.24,32.67,6.6,66.7,6.192,97.574-4.912a146.7,146.7,0,0,0,15.925-6.811c31.415-15.727,54.151-41.649,67.976-69.615a193.405,193.405,0,0,0,10.907-27.491c7.681-24.313,10.907-49.533,12.93-74.444,3.277-39.441,4.941-80.079,29.725-113.72s73.251-55.065,121.666-52.237c68.924,4,120.181,49.409,170.748,86.271,3.968,2.889,8.014,5.779,12.11,8.606,61.78,42.867,135.031,77.086,215.706,83.649,86.1,7.017,181.014-23.693,220.7-86.477" transform="translate(267.71 177.569)"/><path class="e" d="M-259.69,26.3A1427.658,1427.658,0,0,1-108.939-75.569c23.529-13.849,48.159-27.388,76.272-33.7C23.788-121.986,81.139-103.7,130.374-76.725q19.941,10.96,38.4,23.528c51.871,35.323,98.327,75.509,138.385,119.705,39.608,43.672,73.1,92.235,124.2,128.436,30.16,21.217,67.029,38.553,105.587,46.809,33.515,7.162,68.668,7.182,100.595-3.839a146.222,146.222,0,0,0,16.514-6.831c32.618-15.954,55.994-42.681,70.511-71.472A208.591,208.591,0,0,0,736.221,131.4c8.347-24.911,12.8-50.751,16.156-76.034,5.53-40.163,10.907-80.492,37.585-113.906,25.347-31.66,72.1-52.732,119.387-50.194,67.311,3.632,117.774,46.6,167.6,81.131q5.914,4.128,11.931,8.049c60.731,40.081,131.959,71.349,209.946,76.1,83.031,5.057,173.82-26.026,211.277-87.55" transform="translate(271.314 187.37)"/><path class="e" d="M-257.41,36.753a1327.144,1327.144,0,0,1,148.5-99.665c23.222-13.456,47.519-26.562,75.119-32.8,55.431-12.507,111.809,4.582,160.481,30.112Q146.4-55.245,164.709-43.3C216.281-9.745,262.7,28.661,302.966,71.1c39.787,42.021,73.43,89.036,124.073,124.04,31.287,21.609,69.128,39.585,108.737,48.5,34.359,7.719,70.665,8.256,103.616-2.745a146.331,146.331,0,0,0,17.1-6.893c33.822-16.14,57.812-43.672,73.1-73.309A234.84,234.84,0,0,0,741.983,131.8c9.038-25.51,14.543-51.927,19.33-77.623,7.809-40.906,16.8-81.028,45.471-114.092,25.936-29.947,71.074-50.462,117.16-48.171,65.7,3.24,115.521,43.8,164.475,75.972q5.786,3.8,11.726,7.513c59.681,37.253,128.963,65.611,203.98,68.521,79.958,3.1,166.651-28.358,201.855-88.623" transform="translate(274.871 192.833)"/><path class="e" d="M-255.14,49.571A1232.208,1232.208,0,0,1-109.022-47.886c22.914-13.085,46.853-25.757,73.967-31.887,54.407-12.383,109.812,3.55,157.92,27.635,13.16,6.563,25.782,13.725,37.713,21.093A755.541,755.541,0,0,1,298.528,78.115C338.546,118.4,372.5,163.787,422.755,197.676c32.49,21.98,71.2,40.576,111.86,50.152,35.179,8.256,72.636,9.287,106.637-1.651a148.344,148.344,0,0,0,17.692-6.935c35.051-16.367,59.63-44.7,75.657-75.146a257.756,257.756,0,0,0,13.16-29.679c9.755-26.108,16.335-53.1,22.531-79.212,10.036-41.649,22.582-81.462,53.331-114.277,26.422-28.193,69.82-48.089,114.83-46.087,64.008,2.848,113.192,40.989,161.3,70.833,3.789,2.353,7.681,4.685,11.521,6.955,58.631,34.467,125.968,59.853,198.117,60.947,76.81,1.156,159.457-30.669,192.433-89.655" transform="translate(278.413 195.99)"/><path class="e" d="M-252.87,62.35A1147.462,1147.462,0,0,1-109.057-32.9C-86.475-45.591-62.971-57.83-36.242-63.857,17.141-75.951,71.548-61.3,119.118-38.677c13.032,6.192,25.6,12.92,37.381,19.875A747.449,747.449,0,0,1,294.244,85.115c40.2,38.553,74.531,82.308,124.2,115.124,33.745,22.311,73.4,41.546,115.009,51.783,36.024,8.833,74.633,10.319,109.658-.578a152.46,152.46,0,0,0,18.306-6.955c36.228-16.511,61.448-45.736,78.192-77a285.916,285.916,0,0,0,13.928-30.4c10.472-26.707,18.076-54.28,25.6-80.8,12.264-42.351,28.394-81.874,61.32-114.463,26.781-26.5,68.668-45.777,112.654-44.043,62.472,2.477,110.862,38.2,158.227,65.714q5.607,3.24,11.317,6.4C1180.266,1.527,1245.554,24,1314.913,23.26c73.84-.784,152.262-33.022,183.011-90.811" transform="translate(281.955 199.144)"/><path class="e" d="M-250.6,75.115A1069.084,1069.084,0,0,1-109.091-17.9C-86.817-30.288-63.518-42.032-37.4-47.976c52.358-11.909,105.792,1.527,152.8,22.7,12.8,5.758,25.3,12.094,37.073,18.575A737.569,737.569,0,0,1,289.959,92.08C330.335,128.92,365,171,414.058,202.7c35.076,22.7,75.5,42.6,118.235,53.517,36.869,9.349,76.6,11.351,112.654.5a155.643,155.643,0,0,0,18.87-7.017c37.457-16.779,63.24-46.747,80.778-78.84,5.581-10.319,10.241-20.639,14.645-31.144,11.189-27.285,19.894-55.436,28.932-82.37C802.611,14.209,822.07-24.963,857.3-57.3c27.037-24.767,67.515-43.342,110.273-41.979,60.859,2.064,108.532,35.4,155.1,60.554,3.661,2.064,7.374,3.942,11.112,5.841,56.557,28.853,120.053,48.378,186.391,45.715,70.767-2.724,145.068-35.292,173.589-91.781" transform="translate(285.497 202.313)"/><path class="e" d="M-248.33,87.923a994.484,994.484,0,0,1,139.2-90.811C-87.158-14.817-64.218-26.23-38.615-32.051c51.36-11.7,103.8.516,150.214,20.247,12.8,5.366,25.065,11.289,36.792,17.44A728.232,728.232,0,0,1,285.675,99.068c40.555,35.086,75.58,75.538,124.15,106.27,36.28,22.95,77.5,43.486,121.308,55.085,37.714,9.907,78.6,12.383,115.726,1.589a156.131,156.131,0,0,0,19.458-7.059c38.661-16.986,65.032-47.779,83.338-80.7a332.1,332.1,0,0,0,15.362-31.866c11.957-27.883,21.865-56.612,32.106-83.959,16.693-43.878,39.454-82.741,76.963-114.814C901.328-79.665,940.5-97.538,982.132-96.341c59.246,1.713,106.2,32.589,151.981,55.415,3.584,1.8,7.246,3.571,10.907,5.284C1200.527-9.6,1262.026,7.019,1325.547,2.6c67.695-4.685,137.9-37.625,164.167-92.875" transform="translate(289.039 205.458)"/><path class="e" d="M-246,104.87a925.8,925.8,0,0,1,136.746-88.6C-87.593,4.73-64.986-6.25-39.869-11.988,10.441-23.483,61.852-12.38,107.759,5.8c12.6,4.995,24.809,10.485,36.459,16.222a721.494,721.494,0,0,1,137.207,88.19c40.735,33.435,76.144,72.236,124.15,101.853,37.406,23.26,79.472,44.456,124.2,56.716,38.533,10.464,80.573,13.436,118.747,2.662a156.719,156.719,0,0,0,20.047-7.079c39.89-17.213,66.85-48.79,85.9-82.555,6.068-10.732,11.342-21.691,16.181-32.589,12.622-28.482,23.5-57.789,35.281-85.548,19.074-44.621,45.01-83.216,84.849-114.9C918.047-72.934,956.017-90.064,996.5-89.115c57.735,1.218,103.974,29.637,148.933,50.276,3.559,1.61,7.118,3.178,10.728,4.726,54.458,23.239,114.011,36.9,174.665,30.649,64.648-6.625,130.7-39.936,154.745-93.886" transform="translate(292.675 204.445)"/><path class="e" d="M-243.78,125.09A863.908,863.908,0,0,1-109.21,38.717C-87.857,27.572-65.685,17-40.978,11.37,8.309.081,58.747,9.967,104.09,26.684c12.469,4.6,24.553,9.68,36.152,15A713.351,713.351,0,0,1,277.09,124.657c40.965,31.7,76.809,68.665,124.124,97.415,38.84,23.528,81.7,45.406,127.58,58.346,39.378,11.021,82.57,14.447,121.768,3.756A159.1,159.1,0,0,0,671.2,277.1c40.965-17.44,68.668-49.822,88.484-84.413,6.273-10.98,11.8-22.187,16.924-33.311,13.339-29.08,25.3-58.965,38.4-87.137,21.2-45.406,50.259-83.732,92.709-115.186,27.242-20.205,64.008-36.51,103.437-35.85,56.045.949,101.542,26.975,145.708,45.137,3.482,1.424,6.99,2.828,10.523,4.128C1220.8-9.1,1278.4,1.629,1336.19-6.441c61.448-8.586,123.51-42.268,145.3-94.939" transform="translate(296.138 200.158)"/><path class="e" d="M-241.51,145.31A807.464,807.464,0,0,1-109.244,61.124c21.02-10.753,42.962-20.887,67.08-26.438C6.1,23.6,55.538,32.271,100.343,47.565c12.315,4.128,24.323,8.854,35.844,13.766a707.911,707.911,0,0,1,136.644,77.726c40.965,29.988,77.3,65.219,124.073,92.978,40.146,23.838,83.825,46.417,130.73,60,40.223,11.578,84.49,15.52,124.79,4.85a164.745,164.745,0,0,0,21.251-7.182c42.3-17.626,70.46-50.834,91.019-86.25,6.5-11.228,12.315-22.7,17.666-34.033,14.056-29.679,27.139-60.121,41.682-88.747C847.52,34.583,879.575-3.62,924.611-34.7c27.191-18.74,62.958-34.2,101.184-33.786,54.432.557,99.238,24.168,142.584,39.978,3.431,1.238,6.862,2.456,10.241,3.632C1231-7.252,1286.639.529,1341.558-9.378c58.5-10.505,116.315-44.58,135.876-96.012" transform="translate(299.68 195.891)"/><path class="e" d="M-239.24,165.435A752.377,752.377,0,0,1-109.278,83.478c20.713-10.319,42.3-20.082,65.928-25.53,47.238-10.9,95.7-3.426,139.921,10.319,12.187,3.8,24.093,8.049,35.537,12.569a698.813,698.813,0,0,1,136.439,72.628c41.247,28.193,77.936,61.669,124.047,88.479,41.477,24.086,85.924,47.469,133.879,61.628,40.965,12.136,86.539,16.511,127.811,5.923a168.145,168.145,0,0,0,21.84-7.2c43.525-17.853,72.278-51.865,93.58-88.107,6.759-11.475,12.8-23.177,18.434-34.756,14.773-30.3,28.932-61.3,44.882-90.316,25.731-46.83,60.705-84.929,108.429-115.578,27.037-17.337,61.832-31.866,98.879-31.743,52.845.165,96.934,21.382,139.486,34.838,3.354,1.073,6.734,2.064,10.113,3.075C1241.237-5.455,1295-.584,1347-12.327c55.457-12.383,109.146-46.912,126.454-97" transform="translate(303.222 191.7)"/><path class="e" d="M-237,185.666a699.055,699.055,0,0,1,127.734-79.749c20.482-9.989,41.656-19.3,64.776-24.643C1.749,70.6,49.218,76.858,92.871,89.221c12.059,3.426,23.837,7.244,35.23,11.351A692.388,692.388,0,0,1,264.31,167.813c41.477,26.542,78.55,58.243,124.047,84.124,42.885,24.333,88,48.357,137.028,63.258,41.861,12.693,88.484,17.6,130.806,7.017a169.14,169.14,0,0,0,22.428-7.244c44.729-18.059,74.07-52.877,96.165-89.944,6.964-11.744,13.262-23.714,19.177-35.519,15.49-30.958,30.724-62.433,48.057-91.884,28.164-47.469,65.8-85.651,116.315-115.743,26.832-15.974,60.679-29.555,96.6-29.7,51.206-.206,94.6,18.575,136.362,29.72,3.277.867,6.605,1.713,9.908,2.5,50.285,12.032,102.054,13.952,151.212.372C1404.8-29.68,1454.37-64.457,1469.45-113.35" transform="translate(306.717 187.423)"/><path class="e" d="M-234.69,205.844A653.705,653.705,0,0,1-109.362,128.3c20.1-9.6,40.965-18.472,63.624-23.714,45.215-10.485,91.71-5.428,134.8,5.469,11.905,3.034,23.657,6.522,34.923,10.134a686.063,686.063,0,0,1,135.978,62.02c41.631,24.808,79.216,54.734,124.15,79.666,44.012,24.581,89.969,49.348,140.049,64.909,42.706,13.25,90.482,18.575,133.853,8.111a172.351,172.351,0,0,0,23.043-7.306c45.932-18.265,75.888-53.888,98.726-91.781,7.22-11.991,13.749-24.209,19.945-36.242,16.207-31.474,32.618-63.588,51.206-93.473C881.274,57.843,921.779,19.578,975.11-9.811c26.6-14.674,59.527-27.243,94.322-27.656,49.619-.6,92.171,15.768,133.136,24.56,3.252.681,6.478,1.342,9.729,1.961,49.235,9.2,99.059,8.256,145.349-7.2,49.312-16.367,94.732-51.6,107.533-99.19" transform="translate(310.322 183.178)"/><path class="e" d="M-232.42,226.074a609.819,609.819,0,0,1,122.9-75.311c19.765-9.226,40.35-17.667,62.471-22.7,44.191-10.319,89.611-6.46,132.24,3.013,11.777,2.621,23.35,5.614,34.59,8.916a679.374,679.374,0,0,1,135.7,56.757c42.015,22.93,80.061,51.04,124.2,75.084,45.5,24.767,92.171,50.318,143.378,66.54,43.525,13.807,92.453,19.71,136.874,9.205a177.956,177.956,0,0,0,23.606-7.348c47.135-18.575,77.68-54.92,101.286-93.639,7.425-12.239,14.21-24.767,20.662-36.964,16.872-32.073,34.385-64.765,54.407-95C892.634,65.565,935.621,27.115,991.948-1.532c26.346-13.415,58.375-24.932,92.171-25.613,48.006-.97,89.944,12.982,130.09,19.421,3.175.516,6.35.991,9.524,1.4C1271.919.1,1319.8-3.864,1363.219-21.077c46.239-18.327,87.563-53.888,98.188-100.243" transform="translate(313.864 178.944)"/><path class="e" d="M-230.15,246.232a569.467,569.467,0,0,1,120.719-73.124,331.117,331.117,0,0,1,61.447-21.9c43.167-10.072,87.716-7.451,129.654.557,11.649,2.229,23.043,4.809,34.308,7.7a674.593,674.593,0,0,1,135.543,51.6c41.861,21.341,80.419,47.593,123.842,70.729C422.244,306.7,469.686,333.1,521.84,350.045c44.37,14.447,94.45,20.639,139.9,10.319a176.064,176.064,0,0,0,24.2-7.368c48.339-18.7,79.37-55.952,103.846-95.5,7.681-12.383,14.7-25.2,21.43-37.687,17.641-32.816,36.254-66.044,57.633-96.8,34.9-49.719,80.6-88.561,139.947-116.279,26.09-12.177,57.249-22.6,89.765-23.549,46.393-1.362,87.614,10.154,126.966,14.261,3.1.33,6.221.619,9.345.867,47.135,3.591,93.042-3.282,133.6-22.352,43.193-20.247,80.394-56.2,88.766-101.3" transform="translate(317.406 174.678)"/><path class="e" d="M-227.87,266.389a529.914,529.914,0,0,1,118.389-70.895A342.354,342.354,0,0,1-49.314,174.5c42.143-9.865,85.719-8.483,127.094-1.919,11.521,1.837,22.864,4.128,34,6.481a667.984,667.984,0,0,1,135.313,46.293c42.168,19.648,81.213,44.105,123.97,66.375,48.262,25.138,96.4,52.216,149.6,69.842,45.215,14.881,96.421,21.774,142.917,11.351a178.408,178.408,0,0,0,24.784-7.43c49.568-18.885,81.316-56.943,106.407-97.333,7.911-12.734,15.183-25.7,22.2-38.409,18.357-33.27,38.046-67.118,60.833-98.241,37.125-50.462,85.387-89.82,147.807-116.465,25.808-11.021,56.1-20.288,87.486-21.506,44.78-1.734,85.284,7.368,123.842,9.143,3.047.144,6.094.227,9.14.289,46.086.8,90.046-9.019,127.734-29.906,40.12-22.207,73.2-58.532,79.37-102.369" transform="translate(320.963 170.454)"/><path class="e" d="M-225.6,286.672c34.242-27.427,73.367-50.584,116.085-68.707a360.6,360.6,0,0,1,58.887-20.082c41.119-9.659,83.722-9.494,124.534-4.375q17.052,2.167,33.668,5.284a661.1,661.1,0,0,1,135.236,41.03c42.348,17.935,81.93,40.555,123.945,61.917,49.67,25.283,98.5,53.228,152.748,71.472,46.086,15.438,98.419,22.827,145.938,12.383a182.654,182.654,0,0,0,25.373-7.471c50.771-19.112,83.133-57.975,108.992-99.19,8.142-12.982,15.644-26.191,23.043-39.214,19.049-33.848,39.839-68.253,64.008-99.81,39.4-51.184,90.123-91.244,155.693-116.651,25.6-9.886,54.944-17.956,85.207-19.442,43.192-2.064,82.954,4.541,120.719,3.983,2.97,0,5.94-.124,8.935-.268,44.526-1.761,87.2-14.887,121.871-37.48C1416.33-54.1,1445.287-90.792,1449.2-133.37" transform="translate(324.505 166.124)"/><path class="e" d="M-223.33,306.755c33.388-26.813,71.78-49.244,113.781-66.478A377.141,377.141,0,0,1-51.686,221.1c40.12-9.473,81.725-10.588,121.973-6.831,11.24,1.011,22.377,2.394,33.284,4.128a656.86,656.86,0,0,1,134.98,35.726c42.5,16.2,82.57,36.964,123.893,57.5,51.206,25.406,100.62,54.218,155.9,73.124,46.879,16,100.39,23.859,148.959,13.519a184.507,184.507,0,0,0,25.987-7.492c51.974-19.339,84.9-59.007,111.527-101.13,8.372-13.23,16.13-26.707,23.709-39.874,19.766-34.446,41.656-69.429,67.208-101.4C937.363,96.445,990.464,55.5,1059.285,31.535a312.616,312.616,0,0,1,82.877-17.316c41.58-2.518,80.624,1.754,117.57-1.156q4.378-.33,8.756-.8C1312.1,7.523,1352.722-8.253,1384.5-32.8c33.975-26.108,58.887-63.176,60.474-104.474" transform="translate(328.047 161.975)"/><path class="e" d="M-221.06,326.89c32.536-26.2,70.2-47.905,111.476-64.249a402.129,402.129,0,0,1,56.711-18.265c39.1-9.267,79.728-11.6,119.387-9.308,11.112.619,22.147,1.589,33.079,2.828a653.869,653.869,0,0,1,134.673,30.566c42.68,14.509,83.261,33.373,123.868,53.083,52.563,25.489,102.72,55.188,159.047,74.754,47.724,16.511,102.413,24.911,152.006,14.612a189.284,189.284,0,0,0,26.5-7.533c53.178-19.545,86.718-60.038,114.088-102.905,8.628-13.477,16.617-27.2,24.451-40.6,20.483-35.086,43.525-70.606,70.409-102.988,43.909-52.67,99.52-94.712,171.541-117a363.335,363.335,0,0,1,80.65-15.376c39.966-2.889,78.294-1.032,114.446-6.192,2.868-.413,5.71-.887,8.551-1.383,42.679-7.715,81.225-26.141,110.093-52.629,30.929-28.048,51.616-65.487,51.053-105.527" transform="translate(331.589 157.772)"/><path class="e" d="M-218.78,347.132c31.67-25.606,68.6-46.6,109.146-62.061a436.094,436.094,0,0,1,55.559-17.357A464.231,464.231,0,0,1,62.752,255.949c10.984.227,21.891.784,32.746,1.61a650.364,650.364,0,0,1,134.468,25.324c42.86,12.8,83.953,29.782,123.868,48.666,54.1,25.551,104.794,56.2,162.17,76.385,48.646,17.11,104.358,25.943,155.027,15.706a189.04,189.04,0,0,0,27.139-7.6c54.381-19.751,88.536-61.029,116.674-104.742,8.833-13.725,17.077-27.7,25.193-41.278,21.225-35.643,45.292-71.782,73.609-104.577,46.086-53.393,104.179-96.734,179.222-117.187a442.948,442.948,0,0,1,78.448-13.436c38.4-3.282,75.965-3.859,111.323-11.434,2.791-.6,5.581-1.238,8.347-1.94,41.762-10.653,78.267-31.692,104.281-60.1,27.856-29.988,44.447-67.819,41.631-106.6" transform="translate(335.146 153.485)"/><path class="e" d="M-216.51,367.227c71.3-58.367,173.845-88.747,275.515-90.419S261.27,300.791,349.524,341.49c55.482,25.592,106.893,57.149,165.32,78.036s127.4,30.133,185.776,9.164c73.071-26.232,110.094-90.708,145.2-148.6,57.684-95.352,137.668-193.9,263.943-223.581,62.907-14.777,131.651-10.65,192.459-30.318,84.311-27.285,140.408-102.616,130.576-175.43" transform="translate(338.688 149.24)"/></g><g transform="translate(-109.369 -155.397)"><path class="e" d="M-41.8,1135.183c-10.753-70.172,75.171-129.468,161.837-140.345s173.615,11.6,259.514,26.025,182.5,19.174,254.239-21.526C725.5,947.307,746.7,837.859,841.173,788.986c73.532-38.079,169.262-26.686,244.587,1.651,42.6,16.016,78.832,42.97,119.541,61.752,184.675,85.135,197.144,259.142,354.015,285.085,169.749,28.131,261.92-38.636,293.975-84.846,40.965-59.3,109.556-213.2-58.222-320.15-68.181-43.445-135.466-89.758-185.6-146.969-75.094-85.631-74.582-216.584,21.43-287.355,65.8-48.5,166.856-66.251,211.559-128.436,30.032-41.794,25.936-95.682,0-139.292S1771.822-47.734,1722.894-75.7" transform="translate(42.717 75.7)"/><path class="e" d="M-40.565,1135.242c-7.425-72.236,78.038-134.566,167.291-146.99,87.051-12.115,175.51,10.216,261.408,26.129,84.874,15.747,179.222,22.868,250.6-14.117C730.09,952.918,755.77,849.022,850.015,800.789c75.068-38.2,169.262-31.1,246.4-6.336,44.319,14.241,83.594,39.647,126.224,58.676,180.784,80.739,195.762,249.091,349.125,274.683,165.063,27.471,256.748-35.7,290.058-81.276,42.219-57.789,107.533-206.017-51-311.647-65.365-43.589-130.166-90.811-179.5-147.63-72.867-83.629-73.532-209.9,17.077-280.069,62.7-48.543,160.122-68.315,204.62-129.695,30.545-41.98,28.676-95.083,6.119-139C1836.35-5.943,1794.771-42.37,1747.866-72.4" transform="translate(45.371 79.211)"/><path class="e" d="M-39.233,1135.241c-4.1-74.2,80.906-139.622,172.744-153.574,87.588-13.292,177.4,8.813,263.3,26.253,83.876,17.027,175.714,26.542,246.994-6.749,90.968-42.64,120.975-141.149,215.246-188.557,76.477-38.492,169.365-35.582,248.2-14.323,46.086,12.383,88.331,36.3,132.932,55.6,176.662,76.529,194.174,239.019,344.234,264.178,160.3,26.83,251.423-32.754,286.013-77.582,43.346-56.179,105.562-198.917-43.73-303.391-62.6-43.775-124.918-91.822-173.436-148.332-70.665-81.586-72.483-203.252,12.8-272.743,59.578-48.481,153.311-70.255,197.63-130.83,31.057-42.145,31.415-94.526,12.085-138.734-19.714-45.1-57.812-83.464-102.848-115.578" transform="translate(47.931 82.7)"/><path class="e" d="M-37.8,1135.207c-.768-76.219,83.774-144.678,178.2-160.178,88.049-14.447,179.222,7.389,265.2,26.377,82.852,18.286,172.309,30.215,243.358.64C739.566,964.09,774,871.07,868.2,824.365c77.962-38.657,169.544-40.1,250.015-22.311,47.9,10.588,93.042,33.022,139.614,52.547,172.514,72.484,192.715,228.947,339.37,253.858,155.488,26.211,246.072-29.8,281.942-73.887,44.447-54.61,103.616-191.941-36.484-294.929-59.835-43.981-119.439-92.875-167.342-148.992-68.156-79.728-71.458-196.647,8.372-265.457,56.506-48.687,146.476-72.546,190.769-132.254,31.441-42.454,34.206-94.051,18.1-138.466-16.642-45.9-51.206-86.147-94.45-120.263" transform="translate(50.386 86.243)"/><path class="e" d="M-36.28,1135.237c2.56-78.242,86.641-149.715,183.677-166.762,88.459-15.562,181.117,5.944,267.066,26.459,81.93,19.545,168.981,33.909,239.748,8.029C744.437,969.713,783.3,882.183,877.419,836.179c79.37-38.842,169.8-44.683,251.807-30.3,49.773,8.73,97.779,29.679,146.3,49.533,168.213,68.624,191.255,218.9,334.505,243.415,150.7,25.613,240.67-26.83,277.9-70.172,45.523-53.042,101.7-185.089-29.213-286.529-57.1-44.229-114.113-94.01-161.3-149.673-65.877-77.726-70.434-190.084,4.02-258.131,53.459-48.873,139.716-74.713,183.882-133.657,31.9-42.537,37-93.494,24.093-138.177-13.544-46.747-44.831-88.747-86.052-125.01" transform="translate(52.761 89.722)"/><path class="e" d="M-34.76,1135.182c5.914-80.244,89.611-154.688,189.13-173.366,88.92-16.676,183.011,4.5,268.961,26.583,80.855,20.783,165.576,37.707,236.112,15.417,89.944-28.419,133.136-110.583,227.2-155.906,80.957-39.007,170.082-49.327,253.625-38.264,51.642,6.831,102.413,26.376,152.979,46.4,163.86,64.889,189.8,208.824,329.615,232.992,145.938,24.973,235.37-23.9,273.954-66.5,46.547-51.473,99.852-178.341-21.993-278.088-54.355-44.539-108.762-95.083-155.181-150.354-63.573-75.745-69.436-183.686-.307-250.845,50.31-48.935,132.829-76.715,176.815-134.772,32.414-42.722,39.915-93.019,30.084-137.909-10.395-47.614-38.4-91.513-77.629-129.757" transform="translate(55.133 93.265)"/><path class="e" d="M-33.24,1135.19C-24,1052.924,59.136,975.507,161.344,955.24c89.381-17.749,184.88,3.013,270.856,26.707,79.856,21.981,162.17,41.4,232.5,22.7,89.611-23.694,137.233-100.367,231.171-145.009,82.442-39.214,170.415-54.033,255.417-46.252,53.562,4.912,107.123,23.095,159.687,43.342,159.3,61.318,188.337,198.835,324.75,222.652,141.1,24.416,229.942-20.99,269.806-62.8,47.571-49.946,97.983-171.757-14.747-269.688a1328.965,1328.965,0,0,1-149.113-151.035c-61.448-73.722-68.463-177.144-4.66-243.539,47.238-49.162,126.146-78.84,169.979-136.072,32.875-42.908,42.757-92.586,36.075-137.62-7.22-48.543-31.825-94.237-69.128-134.524" transform="translate(57.504 96.765)"/><path class="e" d="M-31.72,1135.177c12.6-84.269,95.244-164.636,200.037-186.555,89.867-18.8,186.9,1.527,272.75,26.831,78.858,23.2,158.74,45.116,228.867,30.194,89.2-18.988,141.3-90.171,235.165-134.152,83.953-39.338,170.773-58.821,257.235-54.239,55.456,2.931,111.758,19.834,166.42,40.246,154.592,57.789,186.9,188.7,319.886,212.168,136.311,23.714,224.54-18.018,265.761-59.11,48.646-48.4,96.242-165.3-7.476-261.268a1562.475,1562.475,0,0,1-143.019-151.737c-59.041-71.72-67.515-170.766-9.012-236.212,44.165-49.389,119.387-80.925,163.066-137.331,31.436-41.131,46.135-89.154,42.04-137.352-3.968-49.533-25.322-97-60.807-139.25" transform="translate(59.876 100.286)"/><path class="e" d="M-30.2,1135.207c15.874-86.291,98.111-169.59,205.491-193.2,90.328-19.834,188.644,0,274.645,26.934,77.859,24.354,155.385,48.811,225.308,37.563,88.792-14.282,145.4-79.914,239.133-123.214,85.463-39.482,171.157-63.65,259.027-62.226,57.4.929,116.417,16.511,173.052,37.15,149.881,54.487,185.418,178.63,314.919,201.724,131.523,23.115,219.137-15.087,261.741-55.395,49.516-46.892,94.6-158.919-.256-252.867-46.086-45.736-92.786-98.241-136.926-152.4-56.788-69.718-66.568-164.45-13.365-228.906,40.965-49.678,112.654-83.03,156.179-138.631,32.007-41.022,48.69-88.6,48.057-137.063-1.01-50.934-19.122-100.7-52.409-144" transform="translate(62.248 103.765)"/><path class="e" d="M-28.68,1135.163c19.254-88.293,101-174.5,210.944-199.743,90.814-20.866,190.539-1.507,276.514,27.058,76.809,25.509,151.955,52.484,221.621,44.951,88.433-9.576,149.5-69.7,243.23-112.338,87.051-39.627,171.541-68.542,260.845-70.172,59.323-1.114,121,13.374,179.734,34.116,145.093,51.246,183.933,168.558,310.105,191.3,126.735,22.476,213.684-12.156,257.7-51.721,50.464-45.406,93.093-152.872,7.015-244.447-43.525-46.252-87.512-99.273-130.858-153.078-54.535-67.675-65.774-158.2-17.717-221.6,37.918-50.008,105.894-85.094,149.215-139.89,32.608-40.98,51.25-88.161,54.048-136.794,2.5-51.922-12.755-103.4-44.089-148.806" transform="translate(64.619 107.297)"/><path class="e" d="M-27.16,1135.2c22.582-90.316,103.9-179.414,216.4-206.389,91.3-21.857,192.459-3.034,278.434,27.161,75.913,26.666,148.5,56.2,218.011,52.34,88.024-4.871,153.619-59.44,247.1-101.44,88.51-39.75,171.9-73.474,262.663-78.18,61.217-3.178,125.583,10.2,186.391,30.958,140.28,48.109,182.5,158.507,305.266,180.9,121.922,21.856,208.2-9.267,253.625-48.027,51.411-43.858,91.71-146.928,14.261-236.026-40.709-46.871-82.186-100.326-124.764-153.76-52.307-65.673-65.006-152.005-22.07-214.293,34.744-50.379,99.161-87.179,142.277-141.17,34.846-43.61,54.816-90.914,60.04-136.506,6.069-52.842-6.255-106-35.589-153.512" transform="translate(66.991 110.766)"/><path class="e" d="M-25.64,1135.115C.3,1042.86,81.151,950.81,196.186,922.164c91.787-22.868,194.354-4.6,280.354,27.284,74.915,27.78,145.119,59.853,214.349,59.729,87.64-.186,157.716-49.2,251.09-90.563,90.046-39.874,172.232-78.427,264.455-86.146,63.163-5.283,130.192,7.038,193.1,27.966,135.39,45.055,181.014,148.435,300.376,170.456,117.16,21.237,202.726-6.336,249.579-44.312,52.307-42.372,90.533-141.128,21.532-227.626-37.918-47.469-76.809-101.357-118.7-154.441-50.08-63.63-64.315-145.876-26.423-206.987,31.518-50.792,92.427-89.263,135.364-142.408,35.358-43.8,57.94-90.5,66.031-136.217,9.628-53.764.2-108.628-27.191-158.259" transform="translate(69.363 114.362)"/><path class="e" d="M-24.12,1135.177C5.144,1040.816,85.589,946,203.185,915.58c92.171-23.838,196.3-6.192,282.249,27.408,73.942,28.894,141.714,63.527,210.74,67.1,87.255,4.52,161.812-38.925,255.058-79.645,91.583-40,172.591-83.484,266.273-94.154,65.057-7.409,134.724,3.921,199.7,24.911,130.448,42.062,179.5,138.57,295.486,160.034,112.321,20.8,197.144-3.468,245.56-40.618,53.178-40.906,89.611-135.494,28.752-219.226-35-48.254-71.689-102.389-112.654-155.122-47.878-61.586-63.726-139.787-30.724-199.66,28.163-51.246,85.694-91.327,128.425-143.709,35.844-43.961,61.115-90.068,72.047-135.969,13.206-54.679,6.684-111.265-18.793-163.047" transform="translate(71.734 117.809)"/><path class="e" d="M-22.6,1135.1C9.993,1038.739,90.054,941.1,210.158,908.961c92.786-24.767,198.22-7.781,284.195,27.511,72.995,30.009,138.257,67.221,207.1,74.506,86.872,9.184,165.934-28.667,259.053-68.769s172.9-88.52,268.065-102.142c66.952-9.556,139.281.867,206.464,21.836,125.455,39.214,178.044,128.518,290.647,149.632,107.533,20.164,191.691-.6,241.489-36.923,54.048-39.461,88.741-130.025,36.024-210.805-32.081-49.079-66.389-103.422-106.586-155.8-45.676-59.564-63.214-133.781-35.128-192.354,24.835-51.762,78.986-93.412,121.513-145.009,36.51-44.105,64.289-89.614,78.013-135.68,16.8-55.538,13.2-113.816-10.369-167.732" transform="translate(74.106 121.373)"/><path class="e" d="M-21.07,1135.1c36.024-98.385,115.521-198.855,238.289-232.786,93.3-25.757,200.165-9.391,286.038,27.635,72.073,31.082,134.9,70.874,203.494,81.875,86.487,13.869,170.031-18.369,263.021-57.789,94.732-40.2,173.18-93.6,269.883-110.108,68.821-11.764,143.787-2.167,213.146,18.761,120.514,36.345,176.662,118.447,285.757,139.209,102.72,19.524,186.186,2.25,237.444-33.249,54.919-38,88.228-124.617,43.269-202.385-28.881-49.946-61.064-104.433-100.441-156.484-43.525-57.5-62.856-127.8-39.454-185.048,21.327-52.278,72.252-95.475,114.574-146.268,36.894-44.27,67.49-89.16,84-135.412a243.717,243.717,0,0,0-1.946-172.52" transform="translate(76.493 124.883)"/><path class="e" d="M-19.55,1135.14C19.7,1034.752,98.89,931.475,224.09,895.729c93.81-26.707,202.265-11.022,287.933,27.759,71.126,32.135,131.5,74.548,199.858,89.263,86.1,18.575,174.1-8.09,267.015-46.995,96.216-40.308,173.436-98.7,271.675-118.1,70.69-13.952,148.293-5.119,219.854,15.685,115.5,33.621,175.1,108.375,280.867,128.786,97.932,18.905,180.63,5.1,233.4-29.534,55.764-36.572,88-119.375,50.541-194.005-25.6-50.9-55.815-105.444-94.373-157.145-41.323-55.457-62.6-121.769-43.807-177.742,17.743-52.836,65.544-97.56,107.533-147.547,37.432-44.436,70.741-88.747,90.021-135.123,23.979-57.25,26.216-118.966,6.427-177.247" transform="translate(78.865 128.352)"/><path class="e" d="M-18,1135.106c42.5-102.389,121.308-208.452,249.016-245.974,94.322-27.677,204.108-12.693,289.828,27.842,70.229,33.208,128.016,78.221,196.248,96.652,85.719,23.2,178.3,2.208,270.984-36.1,97.779-40.37,173.692-103.814,273.493-126.062,72.508-16.181,152.748-8.029,226.537,12.61,110.452,30.958,173.641,98.3,276,118.364,93.119,18.265,175.074,7.9,229.353-25.84,56.583-35.189,88.024-114.174,57.761-185.564-21.993-51.907-50.566-106.476-88.254-157.846-39.173-53.393-62.5-115.867-48.185-170.436,14-53.393,58.887-99.6,100.723-148.806,37.944-44.6,73.993-88.19,95.986-134.854,27.595-58.071,32.771-121.509,14.85-181.994" transform="translate(81.284 131.873)"/><path class="e" d="M-16.51,1135.072C29.422,1030.66,107.844,921.81,238.036,882.555c94.732-28.606,206.105-14.344,291.722,27.966,69.308,34.261,124.738,81.751,192.613,104.04,85.438,27.718,182.448,12.486,274.978-25.2,99.34-40.473,173.9-108.973,275.285-134.153,74.249-18.41,157.2-10.836,233.219,9.556,105.434,28.275,172.258,88.045,271.137,107.941,88.382,17.481,169.518,10.711,225.308-22.146,57.4-33.806,88.408-108.994,65.032-177.164-18.933-55.441-46.551-108.713-82.186-158.527-37.022-51.308-62.523-109.881-52.538-163.047,10.241-53.95,52.128-101.667,93.784-150.086,38.4-44.745,77.27-87.674,102-134.586,31.192-58.872,39.3-124.025,23.248-186.72" transform="translate(83.608 135.416)"/><path class="e" d="M-15,1135.07c49.286-106.455,127.324-218.05,260.026-259.183,95.372-29.534,208.128-16.016,293.617,28.089,68.437,35.292,121.359,85.445,189,111.45,85.054,32.424,186.57,22.806,279.074-14.3,100.9-40.535,174.1-114.112,277.1-142.037,76.118-20.639,161.607-13.58,239.9,6.46C1624.088,891.263,1694.5,943.541,1790,963.086c83.594,16.862,163.86,13.477,221.262-18.451,58.222-32.444,89.125-103.751,72.277-168.764-14.97-55.922-40.641-109.627-76.092-159.188-34.9-49.244-62.651-103.9-56.89-155.823,6.042-54.466,45.446-103.71,86.871-151.366,39.019-44.89,80.547-87.117,107.994-134.3,34.771-59.669,45.823-126.541,31.646-191.467" transform="translate(85.964 138.927)"/><path class="e" d="M-13.47,1135.1C39.119,1026.642,116.8,912.2,251.983,869.374c95.909-30.442,210.151-17.708,295.512,28.193,67.567,36.325,117.954,89.14,185.367,118.818,84.7,37.15,190.795,33.249,282.94-3.426,102.566-40.432,174.255-119.272,278.9-150.024,77.911-22.909,166.011-16.2,246.609,3.405,95.269,23.177,169.314,67.984,261.382,87.1,78.781,16.243,158.33,16.243,217.192-14.757S2110,840.294,2099.43,778.356c-9.4-54.982-34.974-109.386-70.025-159.889-32.8-47.16-62.907-97.808-61.243-148.5,1.818-54.961,38.865-105.712,79.933-152.728,39.685-44.972,83.85-86.683,113.985-134.029,38.373-60.447,52.381-129.042,40.069-196.214" transform="translate(88.352 142.406)"/><path class="e" d="M-11.95,1135.1c55.917-110.521,133.316-227.461,270.907-272.433,96.5-31.247,212.2-19.421,297.406,28.316,66.568,37.357,114.574,92.875,181.782,126.186,84.311,41.814,194.891,43.507,286.909,7.471,104.1-40.535,174.383-124.432,280.713-158.012,79.677-25.159,170.338-18.678,253.266.351,90.3,20.639,167.854,57.789,256.518,76.674,74.019,15.624,152.749,18.967,213.172-11.062,59.835-29.741,91.378-92.875,86.769-151.923-4.353-55.849-29.8-110.418-64.008-160.55-30.724-45.1-63.265-91.657-65.6-141.211-2.56-55.353,32.132-107.776,73.02-153.9,40.2-45.158,87.051-86,119.977-133.74,41.97-61.2,58.947-131.5,48.518-200.919" transform="translate(90.723 145.959)"/><path class="e" d="M-10.43,1135.032C48.841,1022.55,125.8,902.741,265.93,856.118c97.01-32.259,214.273-21.134,299.3,28.441C631.082,922.926,676.4,981.045,743.4,1018.071c83.953,46.5,198.988,53.764,290.9,18.369,105.613-40.679,174.511-129.612,282.505-166,81.444-27.45,174.69-21.031,259.974-2.745s166.421,47.82,251.628,66.271c69.129,14.984,147.167,21.691,209.127-7.368a162.523,162.523,0,0,0,94.04-143.5c1.126-56.551-24.707-111.45-57.863-161.252-28.6-42.991-63.726-85.362-69.948-133.884-7.118-55.725,25.4-109.861,66.082-155.184s90.43-85.424,125.968-133.472c45.525-61.961,65.43-133.987,56.839-205.666" transform="translate(93.095 149.47)"/></g><g transform="translate(923.07 -594.221)"><path class="e" d="M425.741,1719.663c-74.608-37.15-78.115-128.353-34.359-189.63s120-101.832,187.748-146.742,132.88-102.658,138.462-173.222c7.169-90.213-85.387-172.128-73.532-262.113,9.243-70.048,80.24-123.07,154.848-152.728,42.168-16.738,90.917-22.6,134.6-36.428,198.117-62.515,374.164,38.677,497.546-43.527,133.572-89.119,126.761-188.866,102.08-238.008-31.62-62.969-137.515-202.405-346.052-164-84.7,15.6-171.541,28.894-258.361,24.54-129.859-6.584-256.134-88.974-264.429-193.613-5.556-71.72,40.53-146.33,8.347-213.365-21.583-45.075-76.272-76.2-134.6-87.323s-119.848-4.437-177.507,8.751" transform="translate(-360.53 422.59)"/><path class="e" d="M427.673,1723.561c-74.454-40.555-81.213-133.348-37.3-197.2C433.254,1464.027,510.192,1422.5,579.4,1378.5c68.386-43.466,134.314-98.2,143.378-166.308,11.445-87.055-72.918-168.29-60.5-257.7,10.088-71.1,75.965-125.9,148.242-158.8,41.528-18.926,90.686-27.677,135.7-42.557,191.307-62.99,363.411,33.125,484.309-47.263,129.962-86.5,126.3-183.686,103.13-233.219-29.392-62.7-131.831-196.627-333.379-163.274-82.98,13.766-169.16,24.994-255.11,20.371-126.556-6.6-249.016-85.321-260.077-186.163-7.681-69.8,34.232-143.4,2.765-209.815-21.43-45.406-73.967-77.581-130.576-90.935-57.121-13.457-118.389-10.175-176.815.516" transform="translate(-356.547 418.445)"/><path class="e" d="M431.132,1728.036c-74.249-43.92-84.337-138.28-40.274-204.758,42.015-63.361,119.644-105.939,190.334-148.992,69-42.021,135.7-93.762,148.217-159.394,15.746-83.876-60.68-164.451-47.494-253.383,10.728-72.236,71.689-128.7,141.662-164.925,40.965-21.175,90.456-32.754,137.054-48.666,184.7-63.114,352.76,27.739,471.1-50.751,126.377-83.876,125.839-178.485,104.153-228.286-27.139-62.412-126.2-190.951-320.679-162.552-81.521,11.888-167.035,20.948-252.063,16.036-123.151-6.728-241.95-81.792-255.75-178.877-9.652-67.9,28.163-140.468-2.791-206.265C683.323-108.7,632.911-141.743,578.043-157.3c-55.969-15.871-116.9-15.954-176.15-7.74" transform="translate(-354.169 413.722)"/><path class="e" d="M434.634,1733.036c-74.249-47.263-87.409-143.255-43.218-212.312,41.2-64.352,119.439-107.982,191.614-150.086,69.589-40.638,137.182-89.325,153.107-152.5,20.047-80.719-48.313-160.632-34.462-249.07,11.47-73.206,67.464-131.634,135.057-171.055,40.248-23.466,90.2-37.81,138.257-54.8,178.172-62.99,342.109,22.352,458.04-54.2,122.767-81.276,125.455-173.367,105.2-223.457-24.963-62.123-120.668-185.337-308.031-161.829-79.984,10.031-164.68,16.8-248.888,11.805-119.772-7.12-234.909-78.325-251.423-171.571C718.214,77.923,751.5,6.471,721.543-58.748c-21.276-46.293-69.461-80.492-122.537-98.117-54.816-18.307-115.445-21.733-175.458-16" transform="translate(-351.859 408.453)"/><path class="e" d="M438.132,1738.623c-74.044-50.627-90.482-148.208-46.086-219.866,40.376-65.342,119.234-110.088,192.92-151.221,70.178-39.214,138.615-84.888,157.946-145.587,24.374-77.54-35.844-156.855-21.43-244.736,12.238-74.3,63.189-134.689,128.5-177.206,39.608-25.8,89.918-42.826,139.46-60.926,171.721-62.7,331.484,16.965,444.932-57.665,119.157-78.634,124.867-168.062,106.253-218.586-22.787-61.813-115.214-179.826-295.358-161.128-78.525,8.255-162.375,12.8-245.79,7.554-116.392-7.306-227.868-74.837-247.045-164.265C738.687,80.847,767.8,10.469,738.508-54.152c-21.148-46.706-67.234-81.833-118.517-101.708-53.766-20.783-113.985-27.491-174.793-24.251" transform="translate(-349.519 402.618)"/><path class="e" d="M441.673,1744.639c-73.891-53.991-93.5-153.141-49.132-227.42,39.608-66.333,119-112.172,194.2-152.356,70.767-37.769,140.2-80.388,162.836-138.693,28.855-74.3-23.5-152.934-8.4-240.4,13.006-75.311,58.887-137.785,121.9-183.335,38.942-28.152,89.611-47.841,140.817-67.056,165.345-62.226,320.833,11.578,431.8-61.132,115.547-76.013,124.354-162.841,107.277-213.715-20.483-61.5-109.915-174.44-282.659-160.426-77.117,6.192-160.071,8.792-242.616,3.3-113.038-7.492-221.006-71.39-242.718-156.855-15.823-62.309,9.063-131.593-19.51-195.595-21.02-47.139-64.955-83.34-114.472-105.258-52.563-23.322-112.526-33.27-174.1-32.506" transform="translate(-347.249 396.273)"/><path class="e" d="M445.254,1751.229c-73.763-57.355-96.549-158.073-52.1-234.994,38.84-67.283,118.747-114.277,195.506-153.45,71.279-36.386,141.637-75.951,167.7-131.8,33.284-71.121-11.086-149.1,4.609-236.088,13.8-76.364,54.535-140.943,115.214-189.465,38.4-30.566,89.432-52.835,141.918-73.165,159.021-61.648,310.182,6.192,418.663-64.6,111.963-73.412,123.817-157.619,108.327-208.886C1526.6,397.629,1440.423,289.543,1275.1,299.1a1907.426,1907.426,0,0,1-239.466-.949c-109.684-7.678-214.171-67.985-238.365-149.632C779.349,88.025,800.062,19.855,772.18-43.547c-20.892-47.469-62.728-84.867-110.452-108.87C610.292-178.3,550.688-191.466,488.293-193.2" transform="translate(-344.992 389.517)"/><path class="e" d="M448.868,1757.716c-73.609-60.7-99.52-163.047-55.072-242.548,38.149-68.253,118.517-116.4,196.837-154.585C662.45,1325.5,733.7,1289.09,763.2,1235.7c37.509-67.922,1.357-145.256,17.641-231.774,14.568-77.375,50.131-144.142,108.711-195.595,37.585-33.022,89.2-57.789,143.147-79.295,152.774-60.905,299.557.8,405.528-68.108C1546.578,590.134,1561.5,508.548,1547.6,456.91c-16.386-60.823-101.8-181-257.337-158.919-73.353,10.319-155.437.764-236.291-5.2-106.33-7.822-207.386-64.558-234.038-142.305-20.1-58.7-3.456-125.732-30.724-188.515-20.083-45.513-57.3-84.831-106.458-112.461C632.469-178.974,573.2-195.3,510.009-199.53" transform="translate(-342.692 382.782)"/><path class="e" d="M452.423,1764.224c-73.481-63.98-102.413-167.9-58.042-250.122,37.432-69.119,118.235-118.508,198.245-155.679,72.329-33.662,144.53-67.056,177.455-117.993,41.81-64.744,13.8-141.438,30.724-227.44,15.362-78.428,45.676-147.424,102.131-201.745,36.843-35.478,88.945-62.742,144.351-85.424,146.578-60.038,288.88-4.582,392.394-71.534,104.743-68.108,122.69-147.114,110.4-199.144-14.286-60.493-96.37-177.494-244.638-158.28-72.252,9.349-153.132-3.22-233.142-9.432-102.976-7.987-200.754-61.174-229.712-135.02-22.3-56.9-9.7-122.781-36.2-184.945-19.608-45.808-55.162-86.1-102.413-116.052C654.1-179.875,594.626-199.675,531.9-205.88" transform="translate(-340.512 376.027)"/><path class="e" d="M456.057,1770.754c-73.3-67.406-105.434-172.768-60.987-257.656,36.741-70.172,117.928-120.675,199.423-156.855,72.841-32.32,145.938-62.6,182.294-111.078,46.086-61.566,26.269-137.6,43.7-223.127,16.181-79.48,41.2-150.664,95.551-207.875,36.1-37.955,88.74-67.654,145.579-91.554,140.459-59.069,278.229-9.948,379.259-74.981,101.132-65.549,122.127-141.872,111.45-194.315-12.238-60.121-90.865-173.717-231.964-157.557-71.279,8.255-150.8-7.224-229.993-13.684C990.753,273.941,896.2,224.283,865.067,154.38c-24.6-55.147-15.951-119.85-41.784-181.4C804.117-73.2,770.168-114.5,724.865-146.721c-48.6-34.1-107.885-56.776-171.388-65.549" transform="translate(-338.333 369.229)"/><path class="e" d="M459.726,1777.177c-73.174-70.771-108.378-177.66-64.008-265.23,36.049-71.06,117.621-122.822,200.7-157.929,73.327-30.958,147.4-58.119,187.184-104.165,50.438-58.367,38.763-133.74,56.737-218.772,17-80.492,36.638-154.028,88.945-214,35.307-40.473,88.536-72.525,146.809-97.684,134.391-58,267.578-15.335,366.125-78.428,97.548-62.928,121.513-136.609,112.475-189.444-10.241-59.853-85.259-169.8-219.266-156.855-70.485,6.811-148.5-11.207-226.844-17.935-96.268-8.256-187.7-54.383-221.032-120.387C860.62,102.952,865.382,39.425,840.214-21.5c-20.355-49.224-53.562-91.389-94.4-123.255C698.521-181.663,639.4-207.213,575.094-218.54" transform="translate(-336.165 362.558)"/><path class="e" d="M463.365,1783.7c-73.02-74.135-111.271-182.551-66.9-272.784,35.384-71.988,117.314-125.009,202.009-159.043,73.814-29.679,148.806-53.661,192.023-97.271,54.74-55.188,51.206-129.9,69.743-214.5,17.922-81.544,32.055-157.372,82.365-220.134,34.462-42.991,88.382-77.375,148.037-103.793,128.374-56.84,256.927-20.639,353.016-81.936,93.912-60.307,120.847-131.346,113.5-184.573-8.193-59.419-79.754-145.3-206.618-156.133-69.692-5.965-146.168-15.19-223.669-22.187-92.914-8.4-181.347-50.978-216.68-113.06-29.392-51.6-28.419-113.989-52.947-174.3C837.069-65.65,806.037-109.1,766.89-142.861,720.945-182.586,662-211.027,596.86-224.9" transform="translate(-333.992 355.792)"/><path class="e" d="M467.055,1790.193c-72.892-77.5-114.164-187.422-69.871-280.359,34.744-72.917,116.981-127.2,203.315-160.157,74.249-28.358,150.214-49.245,196.914-90.357,58.887-52.01,63.726-126.062,82.775-210.166,18.69-82.556,27.4-160.736,75.785-226.285,33.591-45.529,88.2-82.2,149.241-109.923,122.409-55.725,246.43-25.964,339.882-85.4,90.456-57.521,120.207-126.083,114.548-179.723-6.247-59.027-74.94-141.108-193.944-155.411-68.591-8.256-143.864-19.153-220.52-26.438-89.611-8.5-175.1-47.469-212.353-105.754C900.951,110.4,898.186,49.16,874.324-10.507c-20.022-50.07-48.8-94.815-86.334-130.438-44.575-42.541-103.356-73.879-169.365-90.3" transform="translate(-331.845 349.047)"/><path class="e" d="M470.746,1796.691c-72.739-80.843-117.032-192.292-72.841-287.912,34.155-73.846,116.674-129.427,204.62-161.293,74.736-27.078,151.647-44.786,201.778-83.464,63.317-48.811,76.246-122.2,95.807-205.832s22.736-164.1,69.129-232.414c32.7-48.068,88.075-86.972,150.47-116.052,116.494-54.3,235.779-31.35,326.747-88.747,86.846-54.92,119.515-120.841,115.573-174.873-4.276-58.676-70.1-137.207-181.245-154.792-67.515-10.608-141.56-23.095-217.4-30.669-86.18-8.606-168.981-44.085-208-98.447C920.926,114.168,914.551,54.068,891.38-4.98c-19.868-50.5-46.367-96.528-82.314-134.029-43.188-45.347-101.8-79.594-168.7-98.571" transform="translate(-329.724 342.302)"/><path class="e" d="M474.462,1803.3c-72.61-84.207-119.874-197.164-75.811-295.467,33.54-74.774,116.315-131.676,205.926-162.407,75.2-25.819,153.056-40.349,206.643-76.57,67.592-45.653,88.766-118.343,108.839-201.518,20.483-84.619,17.922-167.443,62.6-238.544,31.748-50.607,88-91.7,151.673-122.182,110.657-52.939,225.154-36.737,313.638-92.318,83.236-52.3,118.824-115.578,116.622-170-2.355-58.326-65.237-133.513-168.6-153.987-66.389-13.271-139.23-27.161-214.222-35.045-82.852-8.689-162.939-40.555-203.648-91.121C940.952,117.973,931.069,58.884,908.487.517,888.773-50.4,864.578-97.745,830.193-137.1c-41.764-48.143-100.2-85.3-168.008-106.827" transform="translate(-327.603 335.546)"/><path class="e" d="M478.172,1809.675c-72.457-87.55-122.69-202.013-78.755-303.02,32.926-75.683,115.982-133.9,207.206-163.522,75.657-24.56,154.464-35.912,211.533-69.656,71.868-42.5,101.286-114.5,121.845-197.184,21.327-85.713,13.237-170.828,56.02-244.695,30.724-53.145,87.947-96.383,152.9-128.291,104.973-51.6,214.5-42.144,300.5-95.805,79.626-49.678,118.082-110.294,117.775-165.111-.461-57.933-60.321-130.025-155.923-153.264-65.237-15.83-136.925-30.958-211.072-39.214-79.37-8.772-157.024-37.005-199.321-83.814-40.069-44.312-53.357-102.307-75.3-160.075-19.535-51.35-41.426-100.016-74.249-141.211C811.018-186.126,752.748-226.2,684-250.27" transform="translate(-325.501 328.801)"/><path class="e" d="M481.9,1816.173c-72.329-90.914-125.455-206.884-81.725-310.574,32.337-76.591,115.624-136.216,208.512-164.657,76.092-23.3,155.872-31.474,216.4-62.742,76.144-39.338,113.832-110.645,134.877-192.87,22.2-86.683,8.423-174.172,49.414-250.824,29.8-55.725,87.947-101.007,154.131-134.421,99.11-50.049,203.827-47.469,287.37-99.252,76.016-47.077,117.339-105.052,118.7-160.3,1.434-57.582-55.226-126.846-143.224-152.562-64.008-18.7-134.622-34.921-207.923-43.342-76.144-8.916-151.187-33.415-194.865-76.591-42.962-42.248-59.553-99.356-80.906-156.5-19.33-51.783-38.891-101.75-70.229-144.8-38.864-53.717-96.964-96.71-166.677-123.338" transform="translate(-323.396 322.056)"/><path class="e" d="M485.674,1822.67c-72.2-94.278-128.3-211.714-84.7-318.148,31.774-77.5,115.214-138.466,209.792-165.751,76.553-22.1,157.254-27.078,221.262-55.849,80.317-36.3,126.377-106.785,147.884-188.557,23.043-87.756,3.61-177.494,42.86-256.954,28.778-58.222,88-105.568,155.334-140.551,93.4-48.522,193.048-53.042,274.235-102.72,72.3-44.58,116.571-99.748,119.772-155.473,3.277-57.252-49.977-123.833-130.576-151.861a996.821,996.821,0,0,0-204.825-47.655c-72.739-8.937-145.349-29.575-190.564-69.161-45.83-40.143-65.621-96.445-86.359-152.955-19.151-52.216-36.356-103.483-66.21-148.393-37.387-56.483-95.3-102.4-165.985-131.594" transform="translate(-321.327 315.311)"/><path class="e" d="M489.431,1829.231c-72.047-97.642-131.063-216.584-87.64-325.7,31.185-78.428,114.881-140.8,211.1-166.886,76.989-20.887,158.739-22.7,226.127-48.935,84.644-33.125,138.948-102.947,160.941-184.244,24.016-88.747-1.28-180.858,36.254-263.083,27.7-60.761,88.178-110.088,156.538-146.68,87.742-46.954,182.4-58.429,261.152-106.187,68.668-41.959,115.752-94.547,120.77-150.664,5.121-56.9-44.473-120.985-117.775-151.118a806.316,806.316,0,0,0-201.6-51.927c-69.487-8.937-139.691-25.716-186.289-61.917-48.9-37.934-71.689-93.535-91.941-149.4C958.122-30.166,943.3-82.775,914.878-129.5c-35.912-59.235-93.652-108.079-165.32-139.849" transform="translate(-319.246 308.502)"/><path class="e" d="M493.2,1835.675c-71.919-100.986-133.828-221.434-90.609-333.277,30.724-79.315,114.523-143.13,212.506-168,77.424-19.669,160.071-18.266,230.992-42.021,88.945-29.968,151.7-99.066,173.948-179.909,25.168-89.779-6.145-184.2,29.674-269.234,26.678-63.3,88.357-114.443,157.792-152.728,82.135-45.405,171.746-63.836,247.966-109.654,64.981-39.42,114.933-89.469,121.717-145.793S1538.5,316.8,1471.984,284.644c-58.887-28.544-127.734-46.6-198.45-56.179-66.158-8.937-133.981-21.733-181.91-54.569-52-35.561-77.859-90.625-97.5-145.834-18.639-53.124-31.185-106.93-58.2-155.576C901.54-189.511,843.983-241.3,771.3-275.64" transform="translate(-317.205 301.81)"/><path class="e" d="M496.915,1842.141c-71.689-104.35-136.337-226.243-93.58-340.83,30.263-80.2,114.19-145.483,213.71-169.115,77.91-18.575,161.5-13.849,235.882-35.086,93.246-26.831,164.167-95.187,186.9-175.575,26.013-90.811-11.061-187.525,23.043-275.364,25.6-65.838,88.664-118.735,159.021-158.919,76.6-43.755,161.095-69.2,234.832-113.122,61.448-36.716,114.062-84.1,122.895-140.86,8.705-56.241-32.49-115.578-92.53-149.714-56.737-32.259-125.456-50.441-195.3-60.41-62.83-8.957-128.246-17.667-177.635-47.263C1059.032,142.86,1030.075,88.188,1011.1,33.6,992.618-19.94,982.53-75.045,956.927-125.59c-32.867-64.712-90.2-119.424-163.86-156.36" transform="translate(-315.107 295.097)"/><path class="e" d="M500.77,1848.67c-71.689-107.714-139.256-231.155-96.55-348.4,29.572-81.152,113.832-147.857,215.067-170.229,78.346-17.337,162.938-9.391,240.669-28.234,97.548-23.611,176.662-91.327,199.986-171.3,26.858-91.843-15.976-190.827,16.514-281.494,24.477-68.356,89.1-122.925,160.225-165.111S1387.1,609.409,1458.4,567.409c57.863-34.1,113.166-78.882,123.894-136.01,10.5-55.931-25.859-112.833-79.831-148.992s-123.049-54.26-192.177-64.662c-59.5-8.957-122.485-13.436-173.282-39.936-58.273-30.38-90.328-84.784-108.634-138.734S1002.413-71.261,978.218-123.7C946.841-191.152,889.66-248.8,814.946-288.32" transform="translate(-313.125 288.32)"/></g></g></g></g></g></svg>